<svg width="36" height="31" viewBox="0 0 36 31" fill="none" xmlns="http://www.w3.org/2000/svg">
<path d="M0 3.38526C0.168005 2.65971 0.449578 1.98836 0.959224 1.42078C1.8077 0.477573 2.8833 0.00734728 4.15226 0.00551046C11.0001 -0.00275523 17.8479 1.71067e-10 24.6949 0.00275523C25.5227 0.00275523 25.9488 0.428897 25.9488 1.2371C25.9497 5.55179 25.9544 9.86739 25.9469 14.1821C25.9432 16.4579 24.1449 18.2121 21.8209 18.2148C17.6537 18.2194 13.4864 18.2203 9.32005 18.213C8.57764 18.2121 7.92533 18.4169 7.32276 18.843C5.50944 20.1242 3.68672 21.3934 1.86307 22.6618C1.09062 23.199 0.482428 23.0613 0 22.2586L0 3.38526ZM13.7013 5.73363C11.6646 5.73455 9.62791 5.73088 7.5912 5.73731C7.02805 5.73914 6.6254 6.10283 6.5644 6.62724C6.51277 7.06808 6.84315 7.53647 7.31432 7.66505C7.45792 7.70362 7.61466 7.70454 7.76577 7.70454C11.6984 7.70638 15.632 7.70638 19.5646 7.70546C19.6585 7.70546 19.7523 7.70821 19.8452 7.69995C20.3051 7.65678 20.6928 7.28942 20.7632 6.83389C20.8279 6.41601 20.5388 5.95129 20.1202 5.79149C19.9391 5.72261 19.7523 5.73363 19.5655 5.73363C17.6105 5.73271 15.6564 5.73363 13.7013 5.73363ZM13.6657 10.5553C11.6412 10.5562 9.6157 10.5525 7.5912 10.559C7.02805 10.5608 6.6254 10.9245 6.5644 11.4489C6.51277 11.8897 6.84315 12.3581 7.31432 12.4867C7.45792 12.5253 7.61466 12.5262 7.76577 12.5262C11.6984 12.528 15.632 12.528 19.5646 12.5271C19.6585 12.5271 19.7523 12.5299 19.8452 12.5216C20.3051 12.4784 20.6928 12.1111 20.7632 11.6555C20.8279 11.2377 20.5388 10.7729 20.1202 10.6141C19.9391 10.5452 19.7523 10.5562 19.5655 10.5562C17.5992 10.5553 15.6329 10.5562 13.6666 10.5562L13.6657 10.5553Z" fill="white"/>
<path d="M35.9953 20.8332C35.9953 23.8061 35.9906 26.7799 36 29.7528C36.0019 30.2396 35.8752 30.6363 35.4134 30.8751C34.9479 31.1157 34.5386 30.9816 34.1388 30.7015C32.3499 29.4451 30.5478 28.2053 28.7673 26.9361C28.1047 26.464 27.4045 26.2417 26.5795 26.2454C22.5286 26.2647 18.4777 26.2546 14.4259 26.2537C13.5699 26.2537 12.743 26.1168 12.0072 25.6585C10.7288 24.8623 10.039 23.728 10.0212 22.2274C10.0146 21.6883 10.0371 21.1473 10.0127 20.6091C9.9977 20.2849 10.1253 20.1903 10.4379 20.1931C11.5614 20.2041 12.6858 20.1977 13.8102 20.1968C16.5264 20.1958 19.2436 20.217 21.9589 20.1867C24.8159 20.1545 27.1802 18.2635 27.8344 15.5441C27.9498 15.0629 28.0052 14.5715 28.0052 14.0774C28.008 12.2066 28.0137 10.3349 27.9996 8.46408C27.9968 8.13162 28.1019 8.03059 28.4388 8.03518C29.6449 8.05355 30.851 8.03426 32.057 8.04804C34.182 8.07284 35.985 9.85547 35.9915 11.9476C36.0009 14.9095 35.9944 17.8713 35.9944 20.8323L35.9953 20.8332Z" fill="white"/>
</svg>
