<svg width="254" height="96" viewBox="0 0 254 96" fill="none" xmlns="http://www.w3.org/2000/svg">
<g clip-path="url(#clip0_1145_41)">
<path d="M149.715 11.6193C151.074 11.1074 151.526 11.616 151.346 12.9909C150.942 16.0786 149.712 18.8547 148.137 21.483C147.648 22.3001 147.629 22.6971 148.472 23.2845C152.996 26.4313 155.355 30.7332 155.178 36.3213C155.165 36.7019 155.165 37.0859 155.188 37.4665C155.234 38.277 154.811 39.3861 155.365 39.8291C156.136 40.4427 156.615 39.1794 157.334 38.907C159.522 38.0768 161.602 38.1753 163.249 39.8553C164.148 40.7741 164.975 40.9021 166.143 40.8791C170.507 40.7938 174.877 40.8004 179.241 40.866C180.386 40.8824 180.721 40.6264 180.645 39.4288C180.383 35.291 181.515 31.5765 184.222 28.3607C185.035 27.3927 185.587 27.2615 186.545 28.2295C194.291 36.049 202.064 43.8455 209.882 51.5927C211.162 52.8626 212.225 54.3753 213.803 55.3335C213.869 56.1177 213.524 56.6788 212.884 57.1152C211.759 57.8831 210.65 58.6772 209.213 59.6878C211.913 59.2317 214.075 60.2489 216.769 60.6165C215.276 58.7822 214.666 56.9938 213.777 55.3499C213.701 54.756 213.633 54.1588 213.554 53.5648C213.465 52.8987 213.406 52.0718 213.849 51.678C214.978 50.6707 215.529 49.66 215.102 48.0882C214.915 47.4057 215.745 47.2482 216.28 47.409C217.291 47.7109 217.783 47.3532 218.318 46.4738C219.259 44.925 219.748 44.9414 220.759 46.4508C221.281 47.2285 221.707 47.7273 222.777 47.3959C223.623 47.1334 224.122 47.6157 223.964 48.5706C223.869 49.1514 223.774 49.7289 223.695 50.2113C225.208 51.1662 227.045 51.1333 228.577 51.9471C229.326 52.3442 229.253 51.6551 229.437 51.3991C230.566 49.8274 230.766 49.7585 231.881 51.2383C232.377 51.8946 232.82 51.7666 233.417 51.6255C235.317 51.1793 235.848 51.6124 235.402 53.4172C235.176 54.3327 235.156 54.8708 236.104 55.3499C236.773 55.6879 237.252 56.4984 236.281 56.984C234.723 57.7617 234.943 58.9626 235.235 60.3802C237.663 59.5664 240.087 58.897 242.702 59.5336C245.583 60.2325 247.939 61.6468 249.658 64.0553C251.279 66.326 250.977 68.9577 248.962 70.6672C246.928 72.3899 244.136 72.1931 242.197 70.1849C242.007 69.988 241.849 69.7616 241.656 69.5713C241.045 68.9675 240.323 68.8166 239.552 69.1742C238.758 69.5417 238.48 70.2308 238.591 71.0676C238.709 71.9371 239.303 72.4589 240.094 72.5934C240.891 72.7312 241.728 72.6492 242.545 72.6623C248.359 72.7411 253.214 77.0724 253.802 82.7065C254.448 88.8984 250.767 94.4308 244.851 95.471C239.106 96.4784 233.811 95.0608 229.27 91.2512C228.856 90.9033 228.449 90.5522 228.043 90.2044C227.459 90.4768 227.665 90.9887 227.633 91.3627C227.449 93.4595 226.245 94.8639 224.381 95.4743C222.557 96.0715 220.674 95.8877 219.289 94.2569C218.794 93.6728 218.38 93.5153 217.629 93.8795C207.435 98.7983 195.941 93.8041 192.365 83.5597C192.316 83.4219 192.178 83.3169 191.837 82.8903C191.837 85.5055 191.856 87.8025 191.834 90.0994C191.794 93.5514 189.691 95.6941 186.387 95.6876C183.182 95.6843 181.029 93.4103 181.023 89.9813C181.016 85.6105 181.075 81.243 181.023 76.8756C180.973 72.7804 178.096 69.6139 174.057 69.0692C170.251 68.554 166.691 70.874 165.484 74.6311C165.175 75.586 165.159 76.5638 165.152 77.5417C165.136 81.2562 165.149 84.9707 165.149 88.6819C165.149 89.8828 165.172 91.1002 164.775 92.2487C163.952 94.6342 161.776 95.8812 158.922 95.6777C156.773 95.5235 154.873 93.827 154.391 91.6023C154.266 91.0313 154.207 90.4472 154.086 89.6663C152.124 91.704 150.034 93.3184 147.543 94.3488C137.773 98.3881 127.053 93.7614 123.32 83.8091C122.887 82.654 122.352 82.3948 121.236 82.4079C115.393 82.467 109.549 82.4506 103.709 82.4604C103.119 82.4604 102.528 82.4604 101.619 82.4604C103.279 84.8591 105.386 85.8599 107.906 86.0929C109.694 86.2602 111.351 85.7877 112.925 84.9182C115.737 83.3661 118.572 84.1011 119.95 86.6802C121.272 89.1609 120.281 91.8845 117.532 93.4365C109.707 97.8467 98.9747 96.0879 93.3773 87.7073C93.1411 87.3529 92.8687 87.0182 92.4947 86.5129C92.0354 87.6253 91.7335 88.6491 91.2151 89.5514C87.921 95.3102 83.4457 96.2618 77.2249 95.5465C74.1572 95.1954 71.3388 93.9484 68.8748 92.0453C66.6765 90.3488 64.3208 88.7212 64.4061 85.3513C63.0937 87.4842 61.7353 89.3742 60.0161 90.9887C52.6765 97.8893 40.5237 97.2364 33.9485 89.581C32.705 88.1372 32.8166 88.2192 31.7175 89.6761C29.6767 92.38 26.8321 94.0108 23.6429 94.9657C12.8287 98.2011 1.86036 91.4973 0.216581 80.3243C-1.46329 68.9281 6.81139 60.6624 15.7784 59.5303C20.129 58.9823 24.1121 59.8322 27.8262 62.0734C30.5068 63.6911 31.327 66.4999 29.8703 68.915C28.4102 71.3366 25.5787 71.9306 22.8981 70.385C17.6551 67.3596 11.4442 69.7681 9.94803 75.4088C9.0195 78.9166 10.4992 82.7951 13.4981 84.7114C16.6872 86.7491 20.713 86.5556 23.5839 84.2324C26.2316 82.0863 26.7467 81.9485 30.0245 82.572C28.4135 75.1791 30.136 68.8133 35.8384 63.7534C39.3917 60.6 43.6308 59.2252 48.3259 59.3498C51.1279 59.4253 53.7986 60.1538 56.2987 61.5057C58.7988 62.8576 60.8659 64.6886 62.5162 66.9626C64.1665 69.2399 65.1509 71.8059 65.6922 74.5885C66.2401 77.394 65.7972 80.1077 65.2263 82.9132C66.3944 82.7196 66.9062 81.7024 67.8478 81.4268C69.9542 80.8066 71.703 81.3973 73.1729 82.9658C75.0988 85.0232 77.4677 86.0797 80.2861 86.1224C81.6116 86.1421 82.7272 85.8205 82.8289 84.2356C82.9076 83.0117 82.0053 82.257 80.3484 82.2996C77.7335 82.3653 75.2563 82.0207 72.9793 80.6097C67.5493 77.2431 65.8136 70.3686 69.111 64.9019C69.6557 63.9995 69.6983 63.5172 68.8912 62.7296C67.0505 60.938 65.4855 58.8937 64.3503 56.5705C63.8614 55.573 63.448 55.5763 62.759 56.4098C61.673 57.7223 60.7838 59.1431 60.0161 60.6558C59.7634 61.1513 59.6683 61.9421 58.8677 61.8338C58.1361 61.7321 58.0803 60.9774 57.9031 60.4393C56.8827 57.3187 57.9917 54.0176 60.9774 51.829C61.9256 51.1333 61.9781 50.5394 61.778 49.5222C60.7937 44.5116 61.1677 39.6486 63.5793 35.0481C64.7538 32.807 66.1909 32.0588 68.1595 32.6987C69.9969 33.2959 70.7548 34.7791 70.4234 37.181C70.0691 39.7602 70.4037 42.2967 70.9188 44.8167C71.1026 45.7093 71.3782 46.1818 72.5167 45.7454C76.2997 44.2983 79.5413 45.7257 82.5894 47.9045C82.9306 48.1473 83.1668 48.4919 82.9864 48.8791C82.7469 49.3975 82.2678 49.4631 81.733 49.322C80.2927 48.9348 78.8261 48.8626 77.3529 49.0759C76.8181 49.1547 76.2767 49.2827 75.7813 49.4894C73.5436 50.4246 73.3632 51.1104 74.692 53.0759C76.2997 55.4516 78.4356 57.3121 80.5322 59.2153C80.8373 59.491 81.2015 59.5106 81.5723 59.6058C84.3119 60.2916 86.5659 61.7387 88.2425 64.0291C89.824 66.1882 89.5352 69.0462 87.5995 70.6705C85.5652 72.3735 82.7042 72.1767 80.8242 70.2046C80.5978 69.9683 80.3977 69.7058 80.1549 69.4859C79.5676 68.9511 78.8622 68.8559 78.1764 69.1939C77.5005 69.5286 77.1003 70.116 77.1462 70.9133C77.1921 71.7107 77.6613 72.2324 78.37 72.5015C78.7145 72.6328 79.1148 72.6459 79.4888 72.659C85.1059 72.8592 85.7785 73.1217 90.2079 76.9576C90.7623 70.664 93.4757 65.6894 98.8041 62.1292C98.0494 61.4663 97.1603 61.4237 96.4024 61.1251C88.9939 58.1948 84.4202 50.5788 85.3749 42.7167C86.3428 34.7528 92.4652 28.4887 100.346 27.3993C111.8 25.8144 121.413 35.0514 120.308 46.6773C120.177 48.0489 120.583 48.1965 121.732 48.1768C124.383 48.1309 124.383 48.1768 124.379 45.4664C124.379 42.464 124.386 39.4583 124.379 36.4558C124.366 30.9366 126.522 26.5068 131.089 23.3632C132.027 22.7168 132.087 22.2213 131.575 21.2861C130.371 19.0876 129.334 16.8005 128.714 14.3592C128.117 11.9999 128.422 11.7013 130.781 12.2198C131.056 11.3108 130.325 10.7038 130.095 9.95563C129.682 8.60699 129.101 7.30758 128.717 5.9491C128.54 5.32564 128.034 4.49218 128.756 3.97372C129.462 3.46839 130.082 4.13123 130.659 4.51843C132.342 5.64065 133.898 6.92038 135.354 8.32152C135.699 8.65293 135.955 9.10248 136.598 9.24029C137.064 7.07788 137.274 4.85641 138.038 2.77931C138.432 1.70631 138.468 0.0131282 139.843 -0.00655992C141.204 -0.026248 141.27 1.67677 141.729 2.71696C142.635 4.76781 142.769 7.03194 143.426 9.43061C144.738 8.18698 145.87 7.04507 147.077 5.98847C147.812 5.34861 148.649 4.81047 149.479 4.29201C149.856 4.05576 150.276 3.62262 150.795 4.10169C151.221 4.49546 151.189 4.97453 151.047 5.46346C150.483 7.39617 149.915 9.32889 149.348 11.2616C149.335 11.4027 149.322 11.5405 149.309 11.6816C149.446 11.6587 149.584 11.6324 149.719 11.6094L149.715 11.6193ZM68.9699 60.2457C68.8551 60.1505 68.7435 60.0553 68.6287 59.9602C68.6156 60.0061 68.6025 60.0553 68.5893 60.1013C68.7271 60.1407 68.8617 60.1767 68.9995 60.2161C69.0093 61.2137 69.9411 61.5352 70.4431 62.1718C70.6761 62.4671 71.0107 62.536 71.2404 62.2079C71.4438 61.9159 71.1387 61.7518 70.9254 61.6041C70.2758 61.1513 69.6229 60.6985 68.9732 60.2457H68.9699ZM96.1333 30.4313H96.1301C89.9158 32.8956 85.7326 40.7544 87.2025 47.1924C87.2451 47.3959 87.2878 47.5993 87.3271 47.8028C87.2254 48.2884 87.3895 48.715 87.6323 49.1186C89.03 54.2867 92.3864 57.6534 97.2718 59.6222C98.7483 60.2161 100.281 60.5902 101.872 60.5344C102.364 60.518 103.089 60.4524 103.286 59.9438C103.483 59.4384 102.82 59.153 102.498 58.8281C100.162 56.4623 98.7549 53.6469 98.2266 50.3721C97.9116 48.4065 98.0954 48.1604 100.034 48.1604C105.652 48.1604 111.269 48.1375 116.882 48.1801C117.89 48.1867 118.447 48.0521 118.598 46.8676C119.1 42.9135 118.277 39.3106 116.056 36.0161C114.727 33.8078 112.939 32.0916 110.606 30.9661C106.262 28.5281 101.78 28.0785 97.134 30.0342C96.76 30.0605 96.3794 30.0736 96.1301 30.4247L96.1333 30.4313ZM148.245 60.9905C149.194 61.5943 150.02 62.0307 150.746 62.5951C153.443 64.6919 153.305 68.7575 150.473 70.5229C148.544 71.7271 146.7 71.3957 144.8 70.2571C141.608 68.344 137.776 68.682 135.02 70.9166C132.821 72.7017 130.82 76.4884 132.208 80.298C134.236 85.8698 141.201 88.019 145.729 84.2422C146.969 83.2086 148.147 82.234 149.863 82.234C151.615 82.234 152.898 83.1364 154.105 84.4817V54.0341C152.665 57.0431 150.824 59.212 148.245 60.9938V60.9905ZM187.27 30.6544C184.747 33.6011 183.89 36.738 184.195 40.1933C184.773 46.7396 188.192 51.5534 193.723 54.7888C198.668 57.6829 203.862 58.2506 209.098 55.2843C210.329 54.5853 210.516 54.0734 209.38 52.9643C204.114 47.8192 198.93 42.592 193.743 37.3681C191.561 35.1728 189.445 32.9153 187.27 30.6544ZM56.197 77.6467C56.2167 72.7804 52.5026 69.0397 47.6336 69.0298C43.0107 69.02 39.1555 72.8198 39.1194 77.417C39.0833 82.2274 42.9122 86.1487 47.6402 86.1421C52.3943 86.1355 56.1773 82.3817 56.197 77.65V77.6467ZM209.4 69.3284C204.987 69.3547 201.096 73.2956 201.093 77.7418C201.093 81.9879 205.295 86.1323 209.561 86.0863C214.22 86.0371 217.875 82.2635 217.819 77.5614C217.767 73.0495 213.934 69.3022 209.4 69.3284ZM165.054 46.4049C165.054 50.2802 165.1 54.1587 165.031 58.034C165.005 59.4745 165.303 59.7371 166.76 59.2711C174.556 56.774 181.374 58.4212 187.053 64.3999C189.468 66.9429 190.79 70.0602 191.696 73.8173C193.395 67.8912 196.693 63.6812 202.306 60.9347C199.701 60.5016 197.418 60.3868 195.449 59.3597C193.067 58.1161 190.715 57.3614 188.06 58.3129C187.762 58.4212 187.414 58.4081 187.089 58.4344C180.409 58.9528 174.477 57.2432 169.51 52.587C167.616 50.8118 166.393 48.6034 165.057 46.4082L165.054 46.4049ZM187.988 54.8446C187.637 54.4639 187.365 54.0537 186.987 53.7847C186.459 53.404 186.164 51.9307 185.137 53.3122C184.96 53.5517 184.655 53.2662 184.484 53.0398C184.284 52.7707 184.32 52.4328 184.563 52.3278C185.629 51.8552 184.93 51.3663 184.606 50.9004C183.011 48.6001 181.784 46.1227 181.174 43.3795C180.99 42.5624 180.708 42.1818 179.792 42.1949C176.357 42.2442 172.922 42.2376 169.487 42.2015C168.666 42.1917 168.424 42.4804 168.522 43.2515C168.702 44.6756 169.182 45.9915 169.877 47.2318C173.115 53.0136 180.704 56.2227 187.991 54.8446H187.988ZM219.909 62.7165C223.059 65.0266 225.126 67.8912 226.52 71.2973C227.941 74.7558 227.534 78.4112 227.646 82.257C230.779 80.3538 233.059 81.3349 235.244 83.5991C237.151 85.5744 239.667 86.316 242.413 86.106C243.519 86.0207 244.218 85.4465 244.254 84.2324C244.293 82.9822 243.522 82.4604 242.469 82.3029C241.721 82.1914 240.947 82.2865 240.182 82.2734C231.547 82.0962 226.222 73.0889 230.221 65.4204C230.589 64.7181 231.025 64.052 231.471 63.2973C228.138 63.6451 224.529 66.2899 222.035 61.7649C221.471 62.0176 220.788 62.3228 219.902 62.7165H219.909ZM68.7829 38.7528C68.8157 38.2081 68.8354 37.332 68.9338 36.4657C69.0618 35.3566 68.7304 34.4542 67.6543 34.1064C66.5026 33.7323 65.7316 34.3098 65.1344 35.3467C63.7728 37.7126 63.1232 40.2852 62.8542 42.9496C62.49 46.5394 63.1396 50.0177 64.5307 53.3187C65.1935 54.8872 66.5223 53.9094 67.4968 53.6665C68.6123 53.3876 67.8216 52.6362 67.6149 52.1276C65.7021 47.4024 65.2657 42.5559 66.3287 37.5715C66.4075 37.204 66.4042 36.6855 66.8931 36.7315C67.5689 36.7905 67.2737 37.3877 67.2671 37.7717C67.2638 38.0932 67.1391 38.4082 67.0801 38.7298C66.2434 43.3139 66.9259 47.724 68.655 51.9996C68.8026 52.3638 68.8354 52.9118 69.4162 52.9381C70.7975 52.9971 71.8474 51.3926 71.2535 50.1194C69.6163 46.6182 68.7173 42.9562 68.7796 38.7528H68.7829ZM223.285 60.0718C223.305 62.5196 224.004 63.2776 226.038 63.2054C228.604 63.1168 230.956 62.2801 233.036 60.7838C234.07 60.0422 234.395 59.2252 233.197 58.162C231.484 56.6362 229.85 55.0053 228.322 53.2958C227.354 52.2129 226.622 52.3179 225.825 53.3318C224.187 55.4188 223.479 57.847 223.285 60.0718ZM219.958 51.7109V51.7043C218.757 51.7043 217.553 51.7568 216.356 51.6912C215.171 51.6255 214.581 52.0521 214.741 53.2793C215.129 56.2424 216.32 58.8281 218.603 60.7805C219.929 61.9159 221.989 61.0791 222.242 59.3334C222.567 57.0792 223.262 54.9955 224.555 53.1218C225.313 52.0226 224.88 51.6846 223.725 51.7076C222.468 51.7305 221.212 51.7141 219.958 51.7141V51.7109ZM114.468 49.345C110.179 49.345 106.423 49.3942 102.672 49.3188C101.376 49.2925 101.166 49.8602 101.439 50.8741C102.042 53.1218 103.155 55.0841 104.815 56.7379C105.264 57.1842 105.655 57.3974 106.19 56.9085C108.821 54.5 111.456 52.0981 114.468 49.3483V49.345ZM118.29 49.3384C118.241 49.4631 118.195 49.5845 118.146 49.7092C120.787 52.1177 123.431 54.523 126.066 56.9381C126.463 57.3023 126.791 57.3023 127.181 56.9282C129.071 55.1038 130.371 52.9545 130.869 50.3524C131.001 49.6633 130.751 49.3352 130.029 49.3384C126.115 49.3483 122.204 49.3417 118.29 49.3417V49.3384ZM116.715 49.916C116.715 53.6862 116.738 56.9906 116.702 60.2982C116.692 61.3351 117.306 61.2629 117.991 61.2005C120.826 60.9347 123.3 59.76 125.777 58.1193C122.814 55.4385 119.937 52.8331 116.718 49.916H116.715ZM115.55 49.8831C112.492 52.6592 109.815 55.1136 107.102 57.5287C106.58 57.9947 106.567 58.2933 107.161 58.6083C107.637 58.8609 108.119 59.235 108.621 59.2777C110.685 59.445 112.719 59.7403 114.678 60.413C115.376 60.6525 115.554 60.3933 115.554 59.7633C115.55 56.6263 115.554 53.4861 115.554 49.8831H115.55ZM201.847 59.4089C205.61 59.4352 208.57 58.6444 211.168 56.7543C211.49 56.5213 212.428 56.3277 211.871 55.6058C211.352 54.9331 210.909 55.6354 210.516 55.9274C207.812 57.9323 204.705 58.7526 201.434 58.5262C195.128 58.0898 190.213 55.0513 186.466 50.0078C182.368 44.4886 181.134 36.1277 185.619 30.5396C185.901 30.1885 186.2 29.7849 185.701 29.4173C185.15 29.0105 184.963 29.6175 184.753 29.8997C181.886 33.7487 181.403 38.067 182.358 42.6346C184.277 51.829 193.179 59.2645 201.85 59.4089H201.847ZM149.062 6.64474C147.343 7.55696 146.316 8.76122 145.289 9.9261C142.809 12.7415 140.338 15.5832 139.275 19.3108C139.164 19.7012 138.809 20.2164 139.282 20.4888C139.738 20.7513 140.345 20.7316 140.83 20.4067C141.047 20.2624 141.208 20.0195 141.365 19.7997C142.684 17.9982 144.285 16.433 145.693 14.7169C147.53 12.479 148.259 9.68984 149.059 6.64474H149.062ZM124.458 68.6951C126.332 65.4696 128.851 63.1661 131.955 61.3843C131.106 60.7182 130.413 60.1997 129.75 59.6485C129.419 59.3761 129.147 59.2383 128.769 59.573C126.437 61.6402 123.667 62.9068 120.528 63.7895C122.04 65.3482 123.349 66.7887 124.461 68.6984L124.458 68.6951ZM101.734 72.5934H115.38C111.902 67.8486 104.697 67.8748 101.734 72.5934ZM130.6 6.39208C131.683 10.5594 133.871 14.9827 137.818 18.6611C137.976 17.3255 139.505 16.3543 138.711 15.0286C136.709 11.6751 134.022 8.91544 130.6 6.39208ZM140.204 42.3787C139.958 42.6084 139.761 42.7921 139.564 42.9759C135.994 46.254 136.014 46.2376 139.426 49.6436C140.072 50.2867 140.391 50.2868 141.047 49.6305C144.561 46.103 144.581 46.1227 140.827 42.8939C140.63 42.7265 140.427 42.5657 140.204 42.382V42.3787ZM144.866 45.4336C145.506 45.2499 145.808 44.7642 146.182 44.3902C148.987 41.5748 148.928 41.6207 146.215 38.7036C145.23 37.647 144.722 37.6338 143.718 38.6839C140.912 41.6141 140.857 41.5649 143.813 44.4788C144.157 44.8167 144.525 45.1285 144.863 45.4303L144.866 45.4336ZM153.518 46.2868C153.406 46.1424 153.328 45.9947 153.21 45.8897C151.996 44.8069 151.182 42.8906 149.669 42.6806C148.6 42.5329 147.747 44.3934 146.733 45.2893C146.569 45.4336 146.451 45.6305 146.274 45.7552C145.755 46.1227 145.729 46.4673 146.208 46.9135C147.396 48.0259 148.56 49.1645 149.732 50.2933C150.821 49.2269 151.91 48.1572 152.996 47.0874C153.111 46.9726 153.223 46.8479 153.311 46.7134C153.397 46.5854 153.449 46.4344 153.521 46.2868H153.518ZM139.459 41.5879C139.229 41.3188 139.039 41.0694 138.822 40.8463C138.179 40.1835 137.428 39.5994 136.893 38.8578C135.863 37.437 135.036 37.6043 134.085 38.9267C133.615 39.5797 133.008 40.1671 132.369 40.6625C131.525 41.3122 131.601 41.8307 132.375 42.4246C132.631 42.6215 132.848 42.8775 133.074 43.1104C134.695 44.7795 136.315 44.8069 137.933 43.1925C138.429 42.697 138.901 42.1785 139.462 41.5846L139.459 41.5879ZM134.718 37.2106C134.275 35.9768 133.51 35.4944 132.917 34.8841C130.797 32.702 130.784 32.7151 128.655 34.8513C127.425 36.0872 127.42 37.344 128.638 38.6215C130.745 40.8299 130.731 40.8168 132.923 38.6609C133.504 38.09 134.193 37.6306 134.721 37.2106H134.718ZM145.237 46.9135C144.594 47.5107 144.256 47.7765 143.977 48.0915C143.055 49.1481 141.273 49.9914 141.339 51.2088C141.395 52.2424 143.048 53.1579 143.918 54.1883C144.61 55.0119 145.145 55.2186 145.932 54.267C146.825 53.1875 148.554 52.2687 148.629 51.1924C148.708 50.0538 146.874 49.1711 145.962 48.1014C145.683 47.7732 145.506 47.3598 145.237 46.9135ZM71.7129 53.5189C69.9674 54.4311 68.1956 55.13 66.1844 55.5993C68.0447 57.6567 70.0888 59.1563 72.1656 60.6296C73.1466 61.3252 73.8652 60.564 74.5214 60.1636C75.3055 59.6845 74.4886 59.1136 74.2392 58.6772C73.3074 57.0332 72.2706 55.445 71.7129 53.5222V53.5189ZM149.683 32.7643C149.341 33.0892 149.026 33.3812 148.718 33.6831C145.48 36.8594 145.506 36.8332 148.734 39.9177C149.512 40.6593 149.912 40.6068 150.65 39.8652C153.833 36.6724 153.863 36.6987 150.532 33.542C150.263 33.2861 149.984 33.04 149.683 32.7643ZM140.187 40.6724C140.387 40.5575 140.555 40.5083 140.66 40.3967C141.775 39.222 143.308 38.2015 143.839 36.8037C144.19 35.8783 142.366 35.035 141.595 34.0867C141.493 33.962 141.359 33.8603 141.267 33.7258C140.574 32.6823 139.984 32.7971 139.219 33.7356C138.373 34.7692 136.67 35.5403 136.631 36.6855C136.585 37.9751 138.373 38.7233 139.262 39.7963C139.531 40.1211 139.879 40.3836 140.187 40.6724ZM144.964 35.8914C145.384 35.5141 145.765 35.2122 146.093 34.8677C146.995 33.9292 148.482 33.0367 148.597 31.9998C148.718 30.9268 146.956 30.1852 146.201 29.1515C145.316 27.9374 144.574 28.0064 143.724 29.1581C142.963 30.1885 141.191 30.8939 141.342 32.003C141.483 33.0531 142.956 33.9292 143.855 34.8677C144.184 35.2122 144.554 35.5174 144.964 35.8914ZM139.41 31.9538C139.269 31.7733 139.18 31.6388 139.068 31.524C138.042 30.4772 137.011 29.437 135.981 28.3936C135.781 28.1934 135.509 27.9998 135.272 28.2295C134.068 29.4009 132.654 30.4542 131.814 31.8521C131.447 32.4624 132.91 33.1909 133.596 33.8209C133.904 34.1031 134.091 34.5133 134.36 34.848C135.089 35.7536 135.784 36.0325 136.641 34.9136C137.264 34.0998 138.074 33.4304 138.79 32.6856C139.009 32.4559 139.2 32.1999 139.41 31.9538ZM144.085 27.209C143.678 26.7332 143.308 26.2836 142.917 25.8538C140.289 22.9564 140.351 23.0285 137.595 25.7061C136.414 26.8546 136.48 27.5273 137.612 28.62C140.26 31.1729 140.214 31.2254 142.835 28.574C143.252 28.154 143.636 27.7045 144.085 27.2123V27.209ZM140.296 59.3236C141.454 59.3006 141.884 58.2604 142.559 57.6173C144.279 55.9799 144.246 55.9438 142.622 54.3163C141.043 52.7325 139.467 52.727 137.894 54.2998C136.24 55.9504 136.227 55.9668 137.989 57.6862C138.662 58.3458 139.124 59.34 140.299 59.3203L140.296 59.3236ZM135.413 55.1333C135.696 54.9397 135.843 54.8675 135.955 54.756C137.093 53.5944 138.731 52.5903 139.177 51.2022C139.472 50.2867 137.559 49.2531 136.667 48.249C136.522 48.0882 136.352 47.9471 136.221 47.7765C135.804 47.2351 135.433 47.1826 134.925 47.724C134.4 48.2851 132.989 52.3573 133.383 52.9217C133.953 53.742 134.734 54.4114 135.417 55.1333H135.413ZM130.741 48.1703V48.1637C131.178 48.1637 131.617 48.1243 132.047 48.1703C133.32 48.3147 133.98 47.3598 134.482 46.546C134.954 45.7749 133.862 45.4697 133.442 45.0267C130.843 42.2802 130.807 42.2868 128.044 45.1449C127.651 45.5518 126.666 45.8766 127.155 46.6116C127.628 47.3204 128.13 48.2425 129.271 48.1768C129.76 48.1506 130.252 48.1736 130.741 48.1736V48.1703ZM139.859 2.30351C138.839 5.06313 138.445 7.74072 138.071 10.4183C137.868 11.8687 139.19 12.5577 139.751 13.6307C139.853 13.8243 140.171 13.8473 140.312 13.6439C140.896 12.817 141.943 12.1148 141.848 11.0549C141.585 8.15088 141.175 5.25017 139.863 2.30351H139.859ZM189.963 56.5049C189.714 56.1374 189.396 56.1046 188.973 56.1735C186.656 56.5476 184.336 56.7116 181.994 56.331C175.511 55.2777 170.478 52.2753 167.823 45.9816C167.393 44.9644 167.321 43.8717 167.078 42.8151C167 42.4771 166.826 42.1949 166.412 42.2507C165.943 42.3163 165.989 42.6904 166.042 43.0054C166.173 43.7536 166.291 44.5116 166.504 45.2367C169.319 54.8577 181.567 59.0283 189.96 56.5016L189.963 56.5049ZM130.659 31.186C131.046 30.8775 131.319 30.7003 131.542 30.4772C132.346 29.67 133.084 28.7873 133.94 28.0425C134.731 27.3534 134.583 26.9268 133.901 26.241C131.975 24.3017 132.008 24.2656 130.042 26.1885C129.691 26.5297 129.294 26.8448 129.038 27.2516C128.746 27.711 127.962 28.1179 128.445 28.7644C129.088 29.6241 129.895 30.3624 130.659 31.186ZM152.035 54.6116C152.009 54.5131 152.009 54.3852 151.946 54.3228C151.231 53.5878 150.614 52.646 149.745 52.2129C149.158 51.9209 148.728 52.9873 148.206 53.4172C148.039 53.555 147.891 53.7158 147.74 53.8733C146.242 55.4002 146.306 56.8527 147.934 58.2309C148.17 58.4311 148.337 58.7362 148.754 58.605C149.335 58.4212 152.012 55.2088 152.035 54.6149V54.6116ZM142.573 20.7743C143.436 21.04 144.102 21.2599 144.777 21.4469C145.276 21.588 145.88 22.0015 146.277 21.4272C147.862 19.1336 149.007 16.643 149.646 13.5028C146.651 15.6127 144.646 18.0639 142.576 20.771L142.573 20.7743ZM136.975 20.7218C135.745 18.1984 132.28 14.7628 130.289 14.1525C130.682 15.7833 131.335 17.2534 132.021 18.7136C133.031 20.8705 134.653 21.576 136.887 20.83C136.926 20.8169 136.946 20.7578 136.975 20.7185V20.7218ZM149.873 31.1926C150.47 30.5199 151.084 29.903 151.608 29.2172C152.025 28.6692 151.408 28.3312 151.162 27.9834C150.506 27.0548 149.732 26.2344 148.875 25.4666C147.56 24.2951 147.284 25.7816 146.621 26.2476C145.854 26.7857 145.745 27.3337 146.559 28.0326C147.419 28.7709 148.147 29.6602 148.948 30.4707C149.167 30.6938 149.443 30.8611 149.873 31.1926ZM118.559 62.5721C122.555 62.6476 125.813 60.8527 128.645 58.1817C131.463 55.5271 133.235 51.176 132.375 49.4402C129.747 58.0865 126.821 59.6681 118.559 62.5721ZM126.004 45.683C127.368 44.3016 128.441 43.2318 129.501 42.1457C129.767 41.8734 130.042 41.578 129.645 41.1777C128.491 40.0194 127.45 38.7331 126.007 37.6437V45.6863L126.004 45.683ZM126.076 36.2196C127.316 34.8874 128.33 33.7914 129.35 32.702C129.688 32.341 130.131 31.9735 129.57 31.4944C128.845 30.8743 128.418 29.9161 127.441 29.6077C127.359 29.5814 127.073 29.8767 127.044 30.0506C126.706 31.9407 125.794 33.729 126.079 36.2196H126.076ZM139.761 22.3985C137.841 22.0441 136.575 22.579 135.295 22.9432C134.583 23.1467 133.517 23.2943 133.405 23.9834C133.297 24.6397 134.282 25.1122 134.784 25.67C135.282 26.2213 135.656 26.3001 136.234 25.6996C137.248 24.6463 138.366 23.6914 139.761 22.4018V22.3985ZM153.698 45.0136V38.4607C152.468 39.2647 151.723 40.3377 150.798 41.2105C150.486 41.5058 150.582 41.7323 150.864 42.0177C151.727 42.8939 152.56 43.7995 153.702 45.0136H153.698ZM106.511 59.4778C102.663 56.8626 100.7 53.4598 99.8573 49.3384C98.6728 52.6132 103.06 59.55 106.511 59.4778ZM141.313 22.2541C141.198 22.3985 141.083 22.5429 140.968 22.6873C141.811 23.4354 142.714 24.1278 143.491 24.9416C144.958 26.474 145.155 26.4805 146.484 24.9088C146.976 24.328 146.9 23.9769 146.247 23.6881C144.666 22.9892 143.055 22.3887 141.316 22.2574L141.313 22.2541ZM132.549 59.8256C134.564 61.1776 136.188 59.3958 138.209 59.5763C136.481 57.5593 134.79 57.4018 133.136 59.1037C132.949 59.2973 132.795 59.5205 132.549 59.8256ZM59.2188 58.8117C59.7766 57.9684 60.1703 57.322 60.6198 56.7149C61.0726 56.1079 61.4925 55.4253 62.0864 54.9922C63.0641 54.2802 63.2249 53.5779 62.4703 52.6493C59.9866 54.1916 58.9202 56.1243 59.2155 58.8084L59.2188 58.8117ZM133.031 53.9455C132.162 55.2974 131.535 56.3737 130.8 57.3679C130.4 57.9093 130.377 58.2047 130.912 58.6608C131.48 59.1431 131.831 59.0217 132.27 58.5295C132.812 57.9192 133.366 57.3121 133.99 56.7904C134.747 56.1571 134.564 55.6583 133.95 55.0841C133.638 54.7888 133.399 54.4114 133.028 53.9487L133.031 53.9455ZM142.54 59.5795C143.705 59.5008 144.705 59.9274 145.742 60.2128C146.411 60.3966 146.986 60.0586 147.314 59.6058C147.711 59.0578 146.976 58.8248 146.697 58.523C145.004 56.6985 144.987 56.7084 143.265 58.4737C143.009 58.7362 142.622 58.897 142.54 59.5828V59.5795ZM78.4717 47.386C76.6737 46.651 75.2366 46.5821 73.7766 46.884C71.6243 47.327 71.5127 47.6715 72.8645 49.5813C74.3475 48.3114 76.047 47.5403 78.475 47.3893L78.4717 47.386ZM153.744 47.9603C149.623 51.7371 150.027 50.9069 152.711 53.2072C153.439 51.5763 153.613 49.8831 153.744 47.9603ZM152.288 30.0014C151.74 30.5855 151.346 31.0252 150.929 31.4452C150.687 31.688 150.427 31.9407 150.769 32.2491C151.651 33.0465 152.242 34.1786 153.508 34.7397C153.561 33.0235 153.141 31.5962 152.288 30.0047V30.0014ZM74.3114 55.76C77.097 60.4589 76.1061 59.7535 77.868 59.1858C76.7262 58.0865 75.5418 56.9446 74.3114 55.76ZM219.437 46.8873C219.266 47.1596 219.135 47.3893 218.987 47.6059C218.462 48.3803 218.839 49.0497 219.24 49.7092C219.361 49.9094 219.561 50.0275 219.758 49.8175C220.332 49.2072 220.467 48.4984 220.139 47.7207C220.014 47.4254 219.948 47.0842 219.437 46.884V46.8873ZM234.336 53.2039C234.437 52.8298 234.214 52.6657 233.916 52.7117C232.915 52.8659 232.232 53.3909 232.075 54.4508C232.032 54.7494 232.108 55.048 232.462 54.9857C233.466 54.8117 234.06 54.162 234.336 53.2072V53.2039ZM217.986 50.2507C217.819 49.135 217.281 48.692 216.238 48.587C216.382 49.6567 216.874 50.1457 217.986 50.2507ZM221.258 50.3458C222.245 50.0439 222.809 49.6075 222.77 48.5411C221.792 48.7314 221.215 49.1416 221.258 50.3458ZM233.079 56.2293C233.725 56.9906 234.378 56.8987 235.028 56.5476C235.192 56.459 235.277 56.1866 235.028 56.0258C234.375 55.6157 233.738 55.5533 233.079 56.2293ZM231.222 52.7346C231.074 52.4754 231.307 51.8848 230.809 51.852C230.234 51.8126 230.241 52.4328 230.228 52.8134C230.215 53.2006 230.27 53.8011 230.818 53.7584C231.294 53.7223 231.146 53.1612 231.222 52.7346Z" fill="white"/>
<path d="M45.1761 50.5886C45.2516 45.1875 48.4834 42.592 52.6043 41.2893C53.3819 41.0432 53.943 41.1941 54.3761 42.149C57.1321 48.1965 54.2251 54.2244 47.7452 55.8421C46.902 56.0521 46.5214 55.8158 46.2326 55.1202C45.5797 53.5517 45.1926 51.9241 45.1761 50.5919V50.5886ZM48.3882 53.7978C53.0309 52.0291 54.8584 48.0653 53.2835 43.8848C53.1129 43.4353 53.1293 42.8545 52.2205 43.0973C48.0175 44.2261 45.5633 49.1973 47.4925 53.1907C48.2833 51.7797 49.0084 50.4574 49.7597 49.1514C49.9402 48.8364 50.1534 48.3573 50.6029 48.5575C51.1607 48.8036 50.9048 49.2925 50.7014 49.6633C50.0058 50.9397 49.284 52.203 48.3882 53.7978Z" fill="white"/>
<path d="M107.108 19.278C108.22 19.0384 108.512 19.7439 108.575 20.7644C108.762 23.9342 106.57 26.3296 103.371 26.4576C102.512 26.4904 102.095 26.1622 101.96 25.2763C101.452 22.0015 103.706 19.2911 107.111 19.278H107.108ZM103.653 23.7242C103.473 24.492 103.86 24.7119 104.641 24.5183C105.858 24.2164 107.043 22.579 106.892 21.4207C106.849 21.086 106.692 20.9646 106.37 20.9449C105.33 20.8858 103.906 22.2148 103.689 23.4617C103.68 23.5142 103.673 23.57 103.65 23.7209L103.653 23.7242Z" fill="white"/>
<path d="M42.5448 57.0791C40.0709 57.0627 38.2401 55.5107 37.725 53.2564C37.5511 52.4918 37.8398 52.1374 38.4403 51.8552C41.3538 50.4869 44.7431 52.1374 45.5272 55.2547C45.7274 56.0521 45.3271 56.3999 44.766 56.646C44.0147 56.9774 43.2076 57.1284 42.5448 57.0791ZM40.7206 53.0595C40.4154 53.1317 39.8609 52.8429 39.6411 53.3023C39.441 53.7223 39.8117 54.1194 40.084 54.4376C40.9338 55.4385 42.0133 55.7371 43.2765 55.4089C43.5881 55.3269 43.7588 55.1628 43.5881 54.8413C42.9976 53.7289 42.2068 52.9151 40.7206 53.0562V53.0595Z" fill="white"/>
<path d="M90.4572 42.5362C90.3719 42.8447 90.28 43.1531 90.198 43.4648C90.0668 43.9702 89.7157 44.2425 89.2334 44.1047C88.5477 43.9111 88.5837 43.2975 88.6691 42.7528C89.0431 40.3443 89.9322 38.1293 91.3234 36.1408C92.4947 34.4674 93.9908 33.1154 95.8282 32.1868C96.4319 31.8816 97.2193 31.3337 97.6557 32.2853C98.0494 33.145 97.1209 33.2959 96.6058 33.6339C96.4286 33.7487 96.2777 33.903 96.1136 34.0375C93.2854 35.6158 91.6679 38.09 90.8542 41.158C90.5786 41.3451 90.5589 41.6141 90.6114 41.9062L90.4605 42.5362H90.4572Z" fill="white"/>
<path d="M109.313 35.5075C109.881 35.4255 110.458 35.373 110.576 36.131C110.635 36.5247 110.498 36.9218 110.022 36.9907C109.29 37.099 109.106 36.5608 108.955 36.0128C109.077 35.8455 109.195 35.6749 109.316 35.5075H109.313Z" fill="white"/>
<path d="M113.657 38.2212C113.483 37.7618 113.352 37.2926 113.801 36.9152C114.31 36.4919 114.668 36.889 115.042 37.1745C115.153 38.2836 114.582 38.487 113.657 38.2212Z" fill="white"/>
<path d="M109.93 33.122C110.399 32.7906 110.872 32.5084 111.328 33.1318C111.534 33.414 111.61 33.7356 111.354 34.0276C110.878 34.5756 110.392 34.3459 109.917 34.0178C109.92 33.7192 109.923 33.4239 109.927 33.1253L109.93 33.122Z" fill="white"/>
<path d="M100.025 31.9866C99.6209 32.2098 99.2436 32.6134 98.7449 32.1901C98.1707 31.7044 98.5513 31.245 98.8007 30.7889C99.6702 30.7167 100.159 31.035 100.025 31.9866Z" fill="white"/>
<path d="M110.931 38.6183C110.783 37.9325 110.678 37.1843 111.708 37.2795C112.617 37.3648 112.44 38.0342 112.207 38.6347C111.78 38.7954 111.354 38.7659 110.931 38.615V38.6183Z" fill="white"/>
<path d="M199.281 54.2178C198.907 54.0866 198.674 53.9028 198.668 53.5156C198.665 53.0726 198.989 52.9742 199.304 52.9742C199.669 52.9742 199.898 53.2268 199.875 53.6042C199.852 53.9816 199.56 54.1259 199.281 54.2178Z" fill="white"/>
<path d="M196.233 49.8306C196.227 50.2146 196.033 50.4311 195.653 50.4574C195.265 50.4836 195.029 50.29 195.026 49.9028C195.023 49.5484 195.2 49.2498 195.58 49.24C195.935 49.2301 196.168 49.4598 196.233 49.8274V49.8306Z" fill="white"/>
<path d="M188.838 38.3393C188.861 38.7823 188.664 39.0219 188.3 39.0612C187.909 39.1039 187.693 38.8184 187.654 38.4903C187.611 38.1293 187.863 37.8734 188.211 37.8307C188.585 37.7848 188.785 38.0342 188.841 38.3361L188.838 38.3393Z" fill="white"/>
<path d="M195.272 41.8274C195.233 41.4369 195.475 41.2762 195.853 41.2499C196.158 41.2302 196.397 41.3451 196.443 41.6699C196.493 42.0341 196.348 42.3459 195.974 42.4115C195.597 42.4771 195.37 42.231 195.275 41.8307L195.272 41.8274Z" fill="white"/>
<path d="M175.222 46.7396C175.114 47.2121 174.92 47.4681 174.526 47.4057C174.178 47.3499 173.893 47.1202 173.955 46.7494C174.008 46.4279 174.241 46.1686 174.641 46.1949C175.058 46.2211 175.13 46.5394 175.225 46.7429L175.222 46.7396Z" fill="white"/>
<path d="M177.781 43.8979C177.768 44.1276 177.607 44.4065 177.226 44.4558C176.816 44.5083 176.639 44.2097 176.577 43.875C176.505 43.4779 176.731 43.2646 177.118 43.2351C177.492 43.2056 177.755 43.3467 177.781 43.9012V43.8979Z" fill="white"/>
<path d="M113.178 35.3139C113.198 35.8816 112.906 36.0555 112.479 36.0555C111.974 36.0555 111.643 35.7766 111.685 35.2811C111.728 34.7824 112.095 34.5658 112.597 34.6314C113.044 34.6905 113.27 34.9235 113.175 35.3139H113.178Z" fill="white"/>
</g>
<defs>
<clipPath id="clip0_1145_41">
<rect width="253.884" height="95.8122" fill="white"/>
</clipPath>
</defs>
</svg>
