<svg width="33" height="33" viewBox="0 0 33 33" fill="none" xmlns="http://www.w3.org/2000/svg">
<g clip-path="url(#clip0_7_73)">
<path d="M18.6797 -1.90735e-05C19.8667 0.199755 21.0472 0.429173 22.1728 0.867386C27.2303 2.83677 30.519 6.42689 32.033 11.6345C32.2207 12.2802 31.9317 12.8177 31.3421 12.9807C30.788 13.1335 30.2764 12.7997 30.0951 12.1572C29.0037 8.28736 26.6936 5.38678 23.1469 3.48764C21.3897 2.54677 19.5048 2.03832 17.5089 1.93907C13.7442 1.75154 10.4407 2.90379 7.59521 5.35778C6.08442 6.66082 4.93874 8.24418 4.11561 10.0608C4.09433 10.1079 4.08142 10.1588 4.05304 10.2419C4.2814 10.2445 4.44009 10.1253 4.61233 10.057C4.93487 9.92937 5.25935 9.87717 5.57673 10.0518C5.9096 10.2355 6.11022 10.5184 6.11602 10.9083C6.12183 11.3059 5.95927 11.6442 5.59673 11.8047C4.57556 12.2571 3.54665 12.6927 2.50806 13.1032C2.06037 13.2798 1.56172 13.0781 1.36239 12.6353C0.90373 11.6178 0.467009 10.5899 0.05867 9.55173C-0.125824 9.08323 0.158659 8.5432 0.611509 8.34858C1.09145 8.14301 1.62236 8.3286 1.88168 8.8029C1.98361 8.98979 2.06424 9.18827 2.15262 9.37774C2.25454 9.38096 2.25712 9.30298 2.28228 9.24949C4.74651 4.0947 8.80603 1.04525 14.4312 0.0618477C14.5576 0.039937 14.6841 0.0199614 14.8098 -0.00130463H18.6804L18.6797 -1.90735e-05Z" fill="white"/>
<path d="M33 24.2951C32.9078 24.3846 32.8207 24.4807 32.7233 24.5638C32.2349 24.9794 31.4976 24.8171 31.1963 24.2235C31.0912 24.016 31.006 23.7982 30.9112 23.5836C30.7757 23.6326 30.7686 23.7415 30.7293 23.8233C28.7986 27.8182 25.7583 30.6137 21.5697 32.0759C17.5586 33.4763 13.5649 33.2907 9.71241 31.4837C5.2968 29.4118 2.43971 25.9738 1.08503 21.292C0.897312 20.6431 1.10826 20.1366 1.63916 19.9252C2.22361 19.6919 2.80935 20.009 2.99578 20.6817C3.2809 21.7103 3.64925 22.7053 4.16596 23.6397C6.28958 27.4798 9.49308 29.9158 13.8126 30.6988C18.7952 31.6023 23.0663 30.1162 26.5704 26.4674C27.5219 25.4769 28.2625 24.3312 28.8521 23.0893C28.8837 23.023 28.9063 22.9527 28.9656 22.8026C28.7521 22.8909 28.6025 22.9566 28.4502 23.0152C27.8516 23.2479 27.302 23.0507 27.0659 22.5203C26.8336 21.9996 27.0697 21.4383 27.6568 21.1818C28.5818 20.7771 29.5127 20.384 30.4468 20.0006C31.0467 19.7544 31.5653 19.9825 31.8363 20.6031C32.2311 21.5085 32.6129 22.4198 33 23.3284C33 23.6506 33 23.9728 33 24.2951Z" fill="white"/>
<path d="M13.5586 22.0208C13.5586 20.625 13.5528 19.2291 13.5638 17.8333C13.5657 17.5704 13.4896 17.4776 13.218 17.4808C12.1968 17.4943 11.1757 17.4782 10.1552 17.4892C9.70165 17.4943 9.35718 17.3345 9.15656 16.9221C8.95335 16.5051 9.05979 16.1301 9.34299 15.7879C11.9924 12.5851 14.6411 9.38225 17.2911 6.18072C17.6581 5.73735 18.0697 5.60524 18.5116 5.77279C18.947 5.93777 19.1515 6.27867 19.1515 6.85093C19.1522 9.57816 19.1573 12.3054 19.1451 15.0326C19.1438 15.3555 19.2257 15.4586 19.5579 15.4515C20.5572 15.4302 21.557 15.4515 22.5563 15.4405C23.0098 15.4354 23.3536 15.5958 23.5549 16.0083C23.7581 16.4252 23.6516 16.7996 23.3684 17.1425C20.712 20.353 18.0587 23.5662 15.3978 26.7735C14.8404 27.4456 13.9173 27.3387 13.6212 26.5873C13.5599 26.4319 13.5599 26.2728 13.5599 26.1117C13.5599 24.748 13.5599 23.3844 13.5599 22.0208H13.5586Z" fill="white"/>
</g>
<defs>
<clipPath id="clip0_7_73">
<rect width="33" height="33" fill="white" transform="matrix(-1 0 0 -1 33 33)"/>
</clipPath>
</defs>
</svg>
