<svg width="43" height="38" viewBox="0 0 43 38" fill="none" xmlns="http://www.w3.org/2000/svg">
<g filter="url(#filter0_d_7_51)">
<g clip-path="url(#clip0_7_51)">
<path d="M4 20.2915C4.24005 19.1468 4.73183 18.1418 5.62536 17.3554C6.49722 16.5881 7.51495 16.1583 8.67104 16.1059C9.53456 16.0669 10.4006 16.1009 11.2658 16.0893C11.5475 16.086 11.5825 16.1932 11.5008 16.4326C11.2583 17.1409 11.1874 17.8749 11.1891 18.6206C11.1933 21.8169 11.1899 25.0132 11.1924 28.2103C11.1924 28.5187 11.1733 28.8321 11.2783 29.1306C11.365 29.3766 11.2541 29.4498 11.0266 29.4481C10.4164 29.4448 9.80629 29.4548 9.19699 29.4464C8.3768 29.4348 7.55746 29.4739 6.73727 29.4099C5.54618 29.3168 4.50845 28.5295 4.13336 27.4006C4.09502 27.2859 4.04584 27.1745 4.00167 27.0615C4.00167 24.8045 4.00167 22.5484 4.00167 20.2915H4Z" fill="white"/>
<path d="M21.0026 29.4482C18.8513 29.4482 16.6999 29.449 14.5486 29.4465C14.3494 29.4465 14.1494 29.4341 13.9527 29.4066C13.4734 29.3393 13.1592 29.0193 13.0916 28.5338C13.0675 28.3592 13.055 28.1813 13.0541 28.0051C13.0516 24.9634 13.0575 21.9217 13.0508 18.88C13.0475 17.3039 13.4976 15.919 14.692 14.8292C15.7022 13.9081 16.9142 13.529 18.2578 13.5232C20.1099 13.5149 21.9619 13.5066 23.814 13.5249C25.9512 13.5465 27.5624 14.4601 28.5359 16.3945C28.9177 17.1534 29.0152 17.9789 29.0168 18.8127C29.0243 21.8984 29.0202 24.9842 29.0177 28.0699C29.0177 28.2354 29.0018 28.4016 28.9768 28.5645C28.9077 29.0218 28.5859 29.3393 28.12 29.4041C27.9233 29.4316 27.7224 29.444 27.524 29.444C25.3502 29.4465 23.1764 29.4457 21.0034 29.4457L21.0026 29.4482Z" fill="white"/>
<path d="M21.0268 0.543398C24.2792 0.528435 26.9648 3.16528 26.9806 6.38819C26.9965 9.70253 24.3384 12.3992 21.0476 12.4075C17.7886 12.4159 15.1088 9.74576 15.0938 6.47547C15.0788 3.20768 17.7286 0.558362 21.0268 0.543398Z" fill="white"/>
<path d="M30.8783 23.2684C30.8783 21.6432 30.8767 20.0172 30.8792 18.3921C30.88 17.7121 30.7766 17.0495 30.5641 16.4044C30.5099 16.2399 30.4807 16.0877 30.7358 16.0944C31.7877 16.121 32.8421 16.0196 33.8907 16.1576C36.207 16.4626 38.0741 18.5591 38.0899 20.8859C38.1024 22.7439 38.1016 24.601 38.0899 26.4589C38.0799 28.0574 36.9005 29.2986 35.301 29.4066C33.884 29.5031 32.4637 29.4257 31.0459 29.4482C30.8191 29.4515 30.7066 29.3792 30.7933 29.1315C30.9008 28.8222 30.8783 28.498 30.8792 28.178C30.8825 26.5412 30.8808 24.9052 30.8808 23.2684H30.8775H30.8783Z" fill="white"/>
<path d="M10.6405 14.9298C8.18994 14.9248 6.15782 12.8956 6.18783 10.4541C6.217 8.07495 8.07325 6.05658 10.658 6.02749C13.0835 6.00006 15.1465 8.08243 15.1215 10.4682C15.0956 12.923 13.0752 14.9347 10.6405 14.9298Z" fill="white"/>
<path d="M31.3971 14.9298C28.9716 14.919 26.9086 12.854 26.9619 10.43C27.0153 8.02176 28.8649 6.06241 31.4246 6.02833C33.866 5.99591 35.8981 8.05834 35.8923 10.4932C35.8864 12.933 33.8526 14.9406 31.3971 14.9298Z" fill="white"/>
</g>
</g>
<defs>
<filter id="filter0_d_7_51" x="0" y="0.543457" width="42.1025" height="36.9131" filterUnits="userSpaceOnUse" color-interpolation-filters="sRGB">
<feFlood flood-opacity="0" result="BackgroundImageFix"/>
<feColorMatrix in="SourceAlpha" type="matrix" values="0 0 0 0 0 0 0 0 0 0 0 0 0 0 0 0 0 0 127 0" result="hardAlpha"/>
<feOffset dy="4"/>
<feGaussianBlur stdDeviation="2"/>
<feComposite in2="hardAlpha" operator="out"/>
<feColorMatrix type="matrix" values="0 0 0 0 0 0 0 0 0 0 0 0 0 0 0 0 0 0 0.25 0"/>
<feBlend mode="normal" in2="BackgroundImageFix" result="effect1_dropShadow_7_51"/>
<feBlend mode="normal" in="SourceGraphic" in2="effect1_dropShadow_7_51" result="shape"/>
</filter>
<clipPath id="clip0_7_51">
<rect width="34.1026" height="28.913" fill="white" transform="translate(4 0.543457)"/>
</clipPath>
</defs>
</svg>
