<svg width="101" height="148" viewBox="0 0 101 148" fill="none" xmlns="http://www.w3.org/2000/svg">
<path d="M73.4901 114.2C76.7501 95.62 79.7801 78.31 82.9301 60.34H57.3501C60.3401 43.19 63.2201 26.69 66.1301 9.97C71.4501 6.82 76.7101 3.71 82.9801 0C80.2501 16.97 77.6901 32.87 75.0301 49.44H100.73C97.4101 67.95 94.2301 85.76 90.9701 103.94C85.5101 107.14 79.9501 110.4 73.4901 114.19V114.2Z" fill="white"/>
<path d="M46.29 68.6099H71.61C68.61 86.2399 65.7 103.27 62.75 120.6C57.14 123.8 51.54 126.99 44.89 130.78C48.06 113.13 51.04 96.5299 54.15 79.1899H28.77C31.89 61.2599 34.86 44.1299 37.9 26.6699C43.27 23.4699 48.69 20.2599 55.17 16.3999C52.15 34.1599 49.3 50.9099 46.28 68.6099H46.29Z" fill="white"/>
<path d="M34.18 137.54C28.49 140.78 23.2 143.8 17.12 147.27C19.83 130.64 22.38 114.94 25.01 98.7601H0C3.24 80.1201 6.38 62.0401 9.63 43.3401C14.77 40.3901 20.2 37.2601 26.63 33.5701C23.39 51.9701 20.32 69.3901 17.13 87.5001H42.65C39.76 104.57 36.98 120.93 34.17 137.54H34.18Z" fill="white"/>
</svg>
