<svg width="292" height="35" viewBox="0 0 292 35" fill="none" xmlns="http://www.w3.org/2000/svg">
<g clip-path="url(#clip0_1145_9)">
<path d="M31.203 22.969C31.203 24.4898 31.2228 26.0105 31.2709 27.5312C31.3557 30.3098 29.5438 31.8051 27.0931 32.8199C19.6082 35.9235 10.871 35.4995 4.8814 29.589C0.34182 25.1116 -0.783182 19.4103 0.488804 13.4687C1.60533 8.27052 4.73158 4.26518 9.79974 1.95299C12.943 0.519884 16.1286 -0.362027 19.5601 0.143941C22.7599 0.61599 25.8381 1.44985 28.4951 3.50199C30.355 4.93792 30.5049 5.61914 28.8371 7.20488C27.0592 8.89803 26.9603 8.87825 24.9392 7.52994C23.0058 6.24382 20.9028 5.67284 18.5284 5.47215C10.529 4.79659 5.14145 11.5014 5.81701 18.8167C6.2608 23.6276 8.83869 26.8839 12.9882 28.7721C16.5328 30.3861 19.7693 29.507 23.2602 28.3255C24.2128 28.0033 25.1738 27.503 25.5469 26.5136C25.7787 25.8946 25.8098 25.2219 25.8268 24.5633C25.8663 23.1754 26.4091 20.4562 24.4898 20.3374C23.2319 20.2583 21.9628 20.2668 20.7134 20.1141C19.204 19.9304 18.8224 19.3396 18.7093 17.5702C18.6273 16.3095 18.9637 15.3908 20.394 15.3399C23.4326 15.2297 26.4769 15.0714 29.5155 15.1223C31.7285 15.1223 31.203 17.7435 31.2539 19.4216C31.2228 20.6031 31.2087 21.7847 31.2059 22.969H31.203Z" fill="white"/>
<path d="M218.849 12.8301C218.539 13.876 218.262 14.5289 218.163 15.2073C217.801 17.658 217.51 20.12 217.176 22.5763C216.704 26.0475 216.226 29.5186 215.729 32.9868C215.579 34.0355 214.723 33.9564 213.971 33.9422C213.157 33.9253 212.261 33.9027 212.249 32.7635C212.287 31.4383 212.747 29.9964 212.732 28.7368C212.989 26.7497 213.109 24.8716 213.394 22.8873C213.778 20.2076 214.053 17.511 214.423 14.8285C214.706 12.7849 215.065 10.7553 215.384 8.71734C215.52 7.84391 215.619 6.962 215.766 6.0914C215.983 4.80811 216.195 3.52199 216.489 2.25565C216.56 1.95603 216.91 1.55465 217.179 1.51507C217.416 1.48115 217.826 1.826 217.976 2.10301C219.395 4.72331 220.811 7.34925 222.159 10.0063C224.342 14.3056 226.467 18.6304 228.624 22.941C228.915 23.5233 229.209 24.1084 229.562 24.6539C230.091 25.4652 230.843 25.4143 231.275 24.5663C232.547 22.0873 233.822 19.6084 235.086 17.1238C237.604 12.1828 240.109 7.23336 242.661 2.30936C242.859 1.92494 243.393 1.71577 243.769 1.42462C244.057 1.80339 244.538 2.15389 244.603 2.56941C244.959 4.83072 245.177 7.11181 245.505 9.37878C246.098 13.452 246.737 17.5195 247.35 21.5898C247.421 22.0534 247.449 22.5255 247.503 22.9919C247.854 26.1096 248.241 29.2218 248.523 32.3452C248.566 32.8116 248.215 33.637 247.868 33.75C247.105 33.9988 246.129 34.5217 245.465 33.4872C245.239 33.1367 245.024 32.7353 244.962 32.3339C244.628 30.2083 244.354 28.0713 244.038 25.9429C243.648 23.3141 243.204 20.691 242.848 18.0566C242.678 16.8015 242.732 15.5182 242.554 14.266C242.48 13.7403 242.076 13.2626 241.822 12.7623C241.46 13.0817 240.968 13.3304 240.759 13.7318C239.894 15.3769 239.156 17.087 238.294 18.7293C237.367 20.4988 236.315 22.2032 235.38 23.967C234.009 26.5534 232.714 29.1794 231.332 31.7573C231.094 32.201 230.625 32.6279 230.164 32.7975C229.958 32.8738 229.384 32.3678 229.192 32.0117C227.974 29.7673 226.815 27.4919 225.642 25.2221C224.426 22.8703 223.211 20.5186 222.007 18.1611C221.351 16.8807 220.74 15.5776 220.054 14.3169C219.799 13.8505 219.381 13.4717 218.852 12.8301H218.849Z" fill="white"/>
<path d="M142.273 34.7366C132.354 34.7874 124.174 26.6411 124.714 16.6093C125.022 10.8939 128.295 5.38758 133.282 2.53833C140.724 -1.71576 150.417 -0.308093 155.954 6.48149C160.027 11.4762 160.951 18.7039 158.323 24.5833C155.335 31.2683 148.814 34.7026 142.273 34.7366ZM128.558 17.4375C128.558 17.8502 128.572 18.2629 128.609 18.6784C129.214 25.485 135.057 31.0365 141.872 31.1439C150.021 31.2711 155.895 25.4143 155.756 17.2227C155.623 9.29117 149.942 3.83858 142.007 3.79053C134.593 3.74813 128.595 10.1816 128.558 17.4347V17.4375Z" fill="white"/>
<path d="M34.8949 17.3498C34.8949 12.5474 34.8864 7.74491 34.9006 2.94246C34.9062 1.40759 35.3811 0.893147 36.9103 0.870533C39.9235 0.828134 42.9423 0.740508 45.9499 0.870533C50.7863 1.0797 54.6277 4.03637 55.8968 8.72293C56.3434 10.368 56.2021 12.1601 55.5237 13.9409C54.2743 17.2198 51.7982 19.1052 48.7709 20.2273C46.9307 20.9086 44.8305 20.9679 42.8321 21.1262C40.6188 21.3015 40.5284 21.293 40.5199 23.4978C40.5086 26.3244 40.5256 29.1482 40.4888 31.9748C40.469 33.5041 40.0479 33.8065 38.5413 33.928C34.3098 34.2701 34.8921 33.2836 34.9006 30.3524C34.9119 26.0191 34.9034 21.6887 34.9034 17.3555H34.8949V17.3498ZM44.1493 5.58536C43.4172 5.58536 42.948 5.57971 42.476 5.58536C40.6612 5.61363 40.5538 5.70126 40.5312 7.48769C40.5058 9.65007 40.5114 11.8124 40.5086 13.9776C40.5086 15.4673 41.0824 16.2305 42.5636 16.1937C44.0023 16.1598 45.4439 15.8432 46.8685 15.5775C49.8139 15.0263 51.2385 11.6513 50.0655 8.96885C48.9094 6.32594 46.6679 5.40163 44.1493 5.58536Z" fill="white"/>
<path d="M67.6725 0.0620896C68.4386 0.0253433 69.2328 0.0733961 70.0526 0.214728C71.8899 0.536965 79.4257 4.20594 76.7036 6.72447C76.3644 7.03823 76.0592 7.39156 75.7426 7.72793C74.742 8.79357 73.9477 8.79074 72.916 7.69401C70.7508 5.39595 66.8189 3.98263 64.3936 6.76687C61.2617 10.368 65.5921 13.319 68.594 14.6221C70.5981 15.4927 72.7181 16.2107 74.4056 17.5957C77.7382 20.3347 78.6286 25.5301 76.6132 29.3432C74.2219 33.8658 68.7297 35.6297 63.9414 34.4679C61.8271 33.9563 60.0774 32.5995 58.6217 30.9516C57.5136 29.6965 57.621 28.5489 58.9241 27.4833C59.1785 27.2741 59.4442 27.0791 59.6873 26.8558C60.9932 25.6545 61.8808 26.494 62.9238 27.5144C64.0714 28.6366 65.2134 29.5467 66.8811 29.7022C68.4612 29.852 70.1148 29.2358 71.1437 28.026C72.1726 26.8162 72.5117 25.0326 71.9125 23.5627C71.0023 21.3325 68.6788 20.6287 66.6097 19.9079C64.1336 19.0458 61.2617 17.7342 59.6279 15.5945C57.9941 13.4547 57.7341 9.98924 58.5595 7.40852C59.8286 3.42861 63.4411 0.271261 67.6725 0.0620896Z" fill="white"/>
<path d="M120.559 23.3649C120.559 24.8715 120.539 26.265 120.593 27.8818C120.593 30.2769 117.998 32.3762 115.55 33.4475C100.648 37.4287 89.8328 29.0012 90.9188 15.0319C91.3287 12.0498 92.6685 9.34192 94.5087 6.93363C96.6089 4.18049 99.3535 2.22163 102.604 1.16446C105.665 0.172315 108.713 -0.472158 112.096 0.542604C114.386 1.22948 116.443 2.08877 118.36 3.41447C118.939 3.81585 120.016 4.09003 119.228 5.18394C118.3 6.46723 117.3 6.75555 116.265 6.06303C113.902 4.48294 111.175 3.71409 108.464 3.75084C104.769 3.80172 101.304 5.00304 98.6836 7.88338C95.6365 11.2358 94.3786 15.1931 95.1107 19.6394C95.7383 23.4497 97.6802 26.8869 100.965 29.0012C103.568 30.6774 106.723 31.1833 109.773 31.0137C111.686 30.9092 114.041 30.8102 115.604 29.5552C117.696 27.8762 116.884 23.8228 116.85 21.4314C116.845 20.9735 116.819 20.4732 116.517 20.1284C116.152 19.7129 115.53 19.6789 114.979 19.6959C113.956 19.727 112.919 19.8372 111.912 19.6478C110.906 19.4585 109.903 18.9016 109.481 17.9688C109.244 17.4402 109.272 16.7081 109.77 16.4113C109.987 16.2813 110.253 16.2615 110.505 16.2446C113.467 16.0608 116.438 16.0835 119.403 16.0919C120.285 16.0919 120.542 16.7788 120.539 17.5787C120.534 19.5093 120.539 21.4399 120.539 23.3705C120.545 23.3705 120.553 23.3705 120.559 23.3705V23.3649Z" fill="white"/>
<path d="M191.816 17.3301C191.816 12.6237 191.81 7.91737 191.818 3.2082C191.818 1.6168 192.384 1.00907 193.967 0.867741C197.438 0.556811 200.864 0.980807 204.041 2.30933C206.624 3.39193 208.286 5.48081 208.877 8.40355C209.287 10.4331 209.338 12.3439 208.835 14.3593C208.317 16.4312 205.047 20.0012 202.961 20.5694C202.336 20.739 201.48 21.1206 201.313 21.6039C201.163 22.0336 201.731 22.8194 202.144 23.3169C204.425 26.0729 206.737 28.8006 209.075 31.5085C209.801 32.348 209.855 33.0773 208.985 33.7981C207.721 34.8439 206.896 34.9089 206.045 33.897C204.945 32.5883 203.967 31.1778 202.879 29.8549C201.435 28.0996 199.928 26.3923 198.461 24.6539C198.074 24.1931 197.768 23.6589 197.347 23.2321C197.084 22.9664 196.677 22.8392 196.335 22.6498C196.2 22.9692 195.948 23.2858 195.942 23.608C195.906 26.1972 195.948 28.7864 195.9 31.3728C195.869 33.1253 195.154 33.9253 193.774 33.9337C192.265 33.9422 191.841 33.555 191.838 32.0144C191.824 27.1187 191.833 22.223 191.833 17.3301C191.83 17.3301 191.827 17.3301 191.821 17.3301H191.816ZM195.937 11.185C195.937 11.185 195.931 11.185 195.928 11.185C195.928 13.0195 195.948 14.8568 195.92 16.6913C195.903 17.8134 196.341 18.342 197.52 18.2544C200.262 18.0452 202.715 17.0898 204.27 14.8115C205.089 13.6102 205.748 11.9171 205.624 10.5235C205.242 6.25248 201.05 4.0788 197.342 4.30493C196.352 4.36429 195.911 4.81655 195.928 5.82001C195.959 7.60644 195.937 9.3957 195.937 11.185Z" fill="white"/>
<path d="M187.502 17.2538C187.502 22.1043 187.471 26.9576 187.522 31.8082C187.536 33.2413 186.923 33.8235 185.552 33.9762C184.537 34.0893 184.028 33.8122 183.918 32.7833C183.794 31.6357 183.183 31.7064 182.493 32.3113C179.508 34.9316 175.899 35.2651 172.286 34.6348C168.097 33.9055 165.24 31.2259 163.611 27.2912C163.473 26.9576 163.498 26.5478 163.496 26.1718C163.479 18.4466 163.507 10.7214 163.428 2.99908C163.411 1.24656 164.513 0.455105 166.042 1.26918C166.489 1.50661 166.944 2.21045 166.955 2.71076C167.054 6.66523 167.054 10.6225 167.071 14.577C167.085 17.7796 167.176 20.9878 167.051 24.1847C166.938 27.0424 170.231 30.6323 172.88 31.0224C176.006 31.4859 178.935 31.0308 181.258 28.7921C182.148 27.9328 182.934 26.6298 183.107 25.4369C183.545 22.387 183.726 19.2862 183.796 16.1995C183.895 11.9171 183.796 7.62911 183.788 3.3411C183.785 1.48117 184.526 0.661449 186.027 0.901714C186.937 1.04587 187.522 1.42181 187.511 2.55247C187.457 7.45103 187.488 12.3496 187.488 17.2482C187.494 17.2482 187.499 17.2482 187.505 17.2482L187.502 17.2538Z" fill="white"/>
<path d="M252.569 25.4849C252.419 22.7713 252.156 20.0606 252.147 17.347C252.139 13.7148 252.351 10.0825 252.416 6.4503C252.43 5.61927 252.292 4.77411 252.136 3.95156C251.803 2.18491 252.922 0.912924 255.093 0.859218C258.058 0.785725 261.026 0.833778 263.991 0.828125C264.698 0.828125 265.418 0.740499 266.105 0.850738C266.623 0.935537 267.307 1.14753 267.544 1.53196C267.878 2.07467 268.07 2.87744 267.926 3.47103C267.841 3.82719 267.004 4.20313 266.493 4.21726C263.906 4.29923 261.314 4.26531 258.725 4.27662C256.563 4.2851 256.198 4.64408 256.189 6.84038C256.178 9.14692 256.24 11.4563 256.17 13.7628C256.13 15.032 256.58 15.5775 257.874 15.5521C260.229 15.5068 262.583 15.5379 264.938 15.5521C266.125 15.5606 266.736 16.0948 266.744 17.3696C266.753 18.5568 266.283 19.1249 265.093 19.1221C262.832 19.1221 260.574 19.1334 258.312 19.1504C256.498 19.1645 256.263 19.3878 256.24 21.1573C256.209 23.6532 256.201 26.1463 256.175 28.6422C256.161 29.8577 256.715 30.4682 257.962 30.4626C261.116 30.4513 264.271 30.4739 267.428 30.4682C268.386 30.4682 269.282 30.5417 269.393 31.7544C269.486 32.7974 268.528 33.8658 267.434 33.8743C262.962 33.9111 258.488 33.8969 254.013 33.9196C252.879 33.9252 252.405 33.3938 252.422 32.2716C252.453 30.0131 252.43 27.7518 252.43 25.4905C252.475 25.4905 252.523 25.4849 252.569 25.482V25.4849Z" fill="white"/>
<path d="M278.816 18.8676C278.816 14.7718 278.822 10.6761 278.816 6.58025C278.814 4.6751 278.474 4.39809 276.561 4.4631C275.012 4.51681 273.46 4.49985 271.911 4.49702C271.04 4.49702 270.283 4.26241 270.181 3.23917C270.088 2.30638 270.147 1.40751 271.363 1.20116C272.004 1.09375 272.643 0.864795 273.282 0.859141C278.791 0.833702 284.297 0.859141 289.806 0.842181C290.985 0.839355 291.867 1.16159 291.989 2.48446C292.099 3.68012 291.48 4.31047 289.942 4.40657C288.252 4.51116 286.556 4.48289 284.86 4.51398C283.042 4.54508 282.341 5.18672 282.341 6.95902C282.33 14.2913 282.347 21.6236 282.344 28.9559C282.344 30.2844 282.415 31.6214 282.262 32.933C282.118 34.1682 280.925 34.0608 280.131 33.9873C279.69 33.9478 279.17 33.2185 278.955 32.6899C278.737 32.1557 278.822 31.4858 278.819 30.8752C278.811 26.8727 278.814 22.8702 278.814 18.8705C278.814 18.8705 278.816 18.8705 278.819 18.8705L278.816 18.8676Z" fill="white"/>
</g>
<defs>
<clipPath id="clip0_1145_9">
<rect width="292" height="34.9118" fill="white"/>
</clipPath>
</defs>
</svg>
