<svg width="46" height="46" viewBox="0 0 46 46" fill="none" xmlns="http://www.w3.org/2000/svg">
<g clip-path="url(#clip0_7_111)">
<path d="M25.18 19.4584C25.8127 18.746 26.3314 18.0278 26.9811 17.4179C28.976 15.537 31.3357 14.5909 34.0944 14.6137C35.6105 14.6251 37.1038 14.7334 38.563 15.1552C41.903 16.1184 43.8409 18.4211 44.7699 21.6813C45.4653 24.1265 45.5907 26.6401 45.5964 29.1593C45.6078 34.4715 45.5793 39.7893 45.5964 45.1014C45.5964 45.5973 45.4596 45.7284 44.9694 45.7284C42.2336 45.7056 39.492 45.7056 36.7561 45.7284C36.2717 45.7284 36.1691 45.5859 36.1691 45.1299C36.1862 40.0743 36.1862 35.0186 36.1691 29.9573C36.1691 28.692 36.0836 27.4209 35.7302 26.1898C35.0747 23.9213 33.4503 22.7643 31.0735 22.8897C27.8247 23.0606 26.1376 24.668 25.7272 27.9681C25.6303 28.7547 25.579 29.5469 25.5847 30.3392C25.5847 35.258 25.5847 40.1769 25.5961 45.0957C25.5961 45.5859 25.4764 45.7284 24.9749 45.7284C22.2162 45.7056 19.4575 45.7056 16.6989 45.7284C16.2543 45.7284 16.1289 45.6144 16.1289 45.1641C16.1403 35.429 16.1403 25.6882 16.1289 15.9531C16.1289 15.4686 16.2885 15.3603 16.7445 15.3603C19.3606 15.3774 21.9825 15.3831 24.5987 15.3603C25.0831 15.3603 25.2028 15.5142 25.1971 15.9702C25.1686 17.133 25.1857 18.2957 25.1857 19.4641L25.18 19.4584Z" fill="#FEFEFE"/>
<path d="M10.1785 30.5846C10.1785 35.4008 10.1728 40.2171 10.1899 45.0334C10.1899 45.5691 10.0588 45.7287 9.50591 45.723C6.77005 45.6945 4.03419 45.7002 1.29263 45.723C0.85375 45.723 0.722656 45.6147 0.722656 45.1644C0.734056 35.4123 0.734056 25.6601 0.722656 15.9022C0.722656 15.4975 0.819551 15.355 1.24703 15.355C4.02279 15.3721 6.79854 15.3778 9.5743 15.355C10.1101 15.355 10.1785 15.5545 10.1785 16.0161C10.1671 20.8723 10.1728 25.7284 10.1728 30.5846H10.1785Z" fill="#FEFEFE"/>
<path d="M10.9321 5.69387C10.9321 8.72041 8.4812 11.1827 5.46036 11.1827C2.48511 11.1884 0.0114387 8.72041 3.92416e-05 5.74517C-0.0113602 2.73002 2.46231 0.256348 5.47746 0.256348C8.4698 0.256348 10.9321 2.71292 10.9378 5.69387H10.9321Z" fill="#FEFEFE"/>
</g>
<defs>
<clipPath id="clip0_7_111">
<rect width="45.5977" height="45.4723" fill="white" transform="translate(0 0.256348)"/>
</clipPath>
</defs>
</svg>
