<svg width="161" height="161" viewBox="0 0 161 161" fill="none" xmlns="http://www.w3.org/2000/svg">
<g clip-path="url(#clip0_1145_2)">
<path d="M98.5022 160.996C94.2486 160.723 90.2539 159.222 86.1232 158.362C81.2769 157.348 76.5712 157.839 71.8259 159.077C68.6697 159.898 65.5574 161.083 62.1992 160.952C58.5338 160.807 55.4127 159.507 52.8008 156.891C49.0432 153.12 45.391 149.275 40.5535 146.725C36.7388 144.714 32.5774 143.854 28.5476 142.739C22.6873 141.119 19.6058 137.388 18.0737 131.87C16.7876 127.234 15.6813 122.55 13.1265 118.349C10.8439 114.596 7.59548 111.743 4.56218 108.71C0.295375 104.438 -0.788886 99.5131 0.782634 93.846C1.79666 90.1894 2.72728 86.5196 3.32867 82.7707C3.81154 79.7375 2.91165 76.8139 2.41561 73.886C1.91957 70.9492 0.940664 68.0915 0.413898 65.1592C-0.41137 60.5675 0.765075 56.5685 4.06615 53.105C7.3321 49.681 10.9448 46.5643 13.3943 42.3897C15.7296 38.4126 16.9544 34.0536 17.9728 29.6595C19.4389 23.3339 23.2975 19.3568 29.4826 18.1628C38.8766 16.3499 46.3523 11.609 52.6779 4.64689C56.8306 0.0859746 61.971 -0.800749 67.6951 1.09122C76.3692 3.95771 84.9731 4.0894 93.6691 0.990257C98.9895 -0.906102 103.915 0.239615 108.094 4.12013C110.877 6.70567 113.427 9.57655 116.386 11.9338C120.332 15.0769 125.121 16.6133 129.985 17.7107C134.889 18.8169 139.147 20.7616 141.574 25.4542C142.992 28.1977 143.642 31.2398 144.348 34.1941C145.797 40.2607 149.054 45.1201 153.374 49.4177C154.827 50.8619 156.328 52.2622 157.658 53.8118C160.845 57.5211 161.499 61.6825 160.419 66.4893C159.339 71.296 157.636 75.9711 157.746 81.0851C157.847 85.7206 159.282 90.0006 160.358 94.3552C161.719 99.8731 160.489 104.386 156.771 108.481C154.076 111.449 151.025 114.061 148.664 117.366C145.766 121.409 144.471 126.031 143.352 130.711C142.246 135.333 140.169 139.253 135.898 141.527C133.01 143.068 129.739 143.74 126.548 144.459C122.229 145.434 118.524 147.572 115.205 150.372C112.861 152.348 110.75 154.6 108.52 156.707C105.715 159.358 102.506 161.079 98.5066 160.996H98.5022ZM154.656 64.3998C154.857 59.7818 152.636 56.349 149.405 53.4957C143.361 48.1578 139.831 41.4328 138.176 33.6454C136.93 27.7807 133.269 24.4445 127.562 23.0047C122.896 21.8283 118.282 20.4938 114.248 17.6624C111.048 15.4193 108.458 12.5308 105.609 9.91895C101.83 6.45546 97.4179 5.72238 92.7648 7.17976C84.5385 9.75653 76.4483 9.70824 68.2307 7.14904C63.3801 5.63897 58.8455 6.4379 55.123 10.2438C51.6419 13.7995 48.1214 17.2805 43.6175 19.6158C39.8116 21.5868 35.5975 22.2453 31.616 23.6544C26.9717 25.3005 24.2632 28.5709 23.0253 33.3074C21.7172 38.3161 20.3169 43.2764 17.1256 47.5696C14.8341 50.6556 11.7745 52.9821 9.44355 55.9627C7.0336 59.0443 5.36989 62.4244 6.62535 66.6385C7.61743 69.9791 8.50854 73.3987 8.94751 76.8446C9.61914 82.1211 8.65779 87.2746 7.18285 92.3842C6.5639 94.5264 5.76497 96.6379 6.41904 99.1839C7.36722 102.88 9.36454 105.698 12.0686 108.086C18.2098 113.512 21.3221 120.518 23.1044 128.301C24.3203 133.617 27.8101 136.655 32.99 138.002C36.0935 138.81 39.1664 139.723 42.147 140.948C47.4541 143.134 51.1459 147.348 55.2064 151.11C58.8323 154.472 63.064 155.324 67.8005 154.139C70.2763 153.52 72.7609 152.914 75.2586 152.409C81.3121 151.189 87.1899 152.352 92.9799 154.003C98.2739 155.513 102.892 154.468 106.557 150.399C112.334 143.985 119.345 139.872 127.777 138.094C133.638 136.861 136.956 133.112 138.269 127.353C138.949 124.368 139.884 121.453 141.162 118.648C143.514 113.468 147.535 109.627 151.372 105.602C154.664 102.147 155.437 97.9416 154.146 93.3983C152.101 86.1991 151.095 79.0088 153.229 71.6033C153.909 69.246 154.866 66.8844 154.664 64.391L154.656 64.3998Z" fill="white"/>
<path d="M120.907 77.7357C120.907 84.9788 121 92.2218 120.877 99.4648C120.793 104.474 119.674 109.162 115.613 112.66C111.535 116.176 106.803 116.084 101.939 115.25C100.824 115.057 100.223 114.206 100.254 113.003C100.271 112.344 100.245 111.686 100.245 111.027C100.245 98.9556 100.245 86.8839 100.245 74.8122C100.245 70.8044 97.4574 67.5604 93.5199 66.959C87.8659 66.0986 83.7659 68.9695 82.7211 74.5927C82.4973 75.8086 82.4183 77.0641 82.4139 78.302C82.3787 86.1289 82.5719 93.9645 82.3041 101.783C82.1154 107.265 79.7537 111.769 74.6221 114.434C71.084 116.269 67.3747 115.781 63.6785 115.285C62.4362 115.119 61.8217 114.188 61.7339 112.959C61.6768 112.156 61.6724 111.352 61.6724 110.549C61.6637 97.6738 61.6242 84.7988 61.6944 71.9193C61.7032 70.0581 61.0403 68.9782 59.4732 68.0696C53.5032 64.6148 46.0275 68.469 45.7553 75.4399C45.4656 82.898 45.2988 90.3342 45.7334 97.7924C45.9485 101.458 45.2724 105.114 43.6351 108.446C41.3788 113.033 37.5773 115.439 32.4545 115.654C31.0673 115.711 29.6714 115.685 28.2886 115.575C25.6723 115.36 24.8734 114.451 24.8032 111.782C24.7944 111.418 24.7988 111.049 24.7988 110.685C24.7944 98.1743 24.768 85.6636 24.79 73.1528C24.8076 63.3813 31.0761 54.1322 40.0048 51.1691C48.3847 48.386 55.7902 50.3614 62.1685 56.3709C63.3317 57.464 64.3063 59.3735 65.5705 59.5623C66.7426 59.7379 67.5415 57.5254 68.595 56.4456C72.5633 52.3851 77.5149 50.0102 83.0196 49.9225C89.8018 49.8127 95.9254 52.1875 100.403 57.6703C101.316 58.7897 101.702 59.3428 102.8 57.7142C106.873 51.6696 111.469 50.6687 118.923 51.7705C120.236 51.9637 120.798 52.7845 120.855 54.0356C120.885 54.6941 120.899 55.3525 120.899 56.011C120.899 63.254 120.899 70.4971 120.899 77.7401H120.907V77.7357Z" fill="white"/>
<path d="M132.079 115.663C126.97 115.659 123.01 111.743 123.032 106.712C123.05 101.936 127.413 97.5817 132.132 97.6212C136.759 97.6607 141.104 102.028 141.118 106.655C141.131 111.633 137.083 115.667 132.079 115.663Z" fill="white"/>
</g>
<defs>
<clipPath id="clip0_1145_2">
<rect width="160.804" height="160.905" fill="white" transform="translate(0.0979004 0.0947266)"/>
</clipPath>
</defs>
</svg>
