<svg width="271" height="91" viewBox="0 0 271 91" fill="none" xmlns="http://www.w3.org/2000/svg">
<path d="M133.864 65.4328C133.544 65.4494 133.309 65.2119 133.083 64.9542C129.871 61.3184 126.658 57.6845 123.45 54.0469C121.352 51.6684 119.264 49.2789 117.168 46.8987C116.708 46.3758 116.633 45.9082 117.232 45.4167C118.223 44.6031 119.207 43.7765 120.155 42.915C120.685 42.4345 121.067 42.475 121.532 43.0033C124.271 46.1126 127.101 49.1464 129.748 52.3311C130.996 53.8333 132.478 55.1293 133.585 56.7475C133.943 57.2721 134.222 57.2924 134.706 56.8008C137.594 53.8628 136.837 54.6599 139.624 51.6206C140.126 51.0738 140.71 50.6946 141.297 51.442C142.056 52.4103 143.039 53.1467 143.865 54.0469C144.497 54.7354 144.418 55.2563 143.839 55.8381C142.872 56.8119 141.896 57.7747 140.925 58.7448C139.092 60.5728 141.034 58.7872 139.203 60.6152C137.693 62.121 136.182 63.6251 134.671 65.1309C134.465 65.3371 134.217 65.4347 133.866 65.4347L133.864 65.4328Z" fill="white"/>
<path d="M122.105 13.1384C130.295 13.1384 136.947 20.8747 136.947 30.4012V42.0377C136.947 51.5002 130.295 59.2365 122.105 59.2365H118.807C110.616 59.2365 104.02 51.5002 104.02 42.0377V30.4012C104.02 20.8747 110.616 13.1384 118.807 13.1384H122.105ZM130.185 42.0377V30.4012C130.185 25.2224 126.557 21.0026 122.105 21.0026H118.807C114.354 21.0026 110.726 25.2224 110.726 30.4012V42.0377C110.726 47.2165 114.354 51.4363 118.807 51.4363H122.105C126.557 51.4363 130.185 47.2165 130.185 42.0377Z" fill="white"/>
<path d="M253.793 26.3817L261.776 14.0668H270.873L257.816 34.179V57.1379H250.204V35.0454L237.146 14.0668H246.12L253.793 26.3817Z" fill="white"/>
<path d="M223.958 14.0668V49.5262H244.689V57.1379H216.408V14.0668H223.958Z" fill="white"/>
<path d="M195.228 13.1385C204.015 13.1385 211.194 20.2551 211.194 29.1045V57.1379H203.582V46.8651H186.812V57.1379H179.262V29.1045C179.262 20.2551 186.378 13.1385 195.228 13.1385ZM186.812 39.2534H203.582V29.1045C203.582 24.4632 199.807 20.7502 195.228 20.7502C190.586 20.7502 186.812 24.4632 186.812 29.1045V39.2534Z" fill="white"/>
<path d="M168.318 41.5986V15.4626H174.523V41.5986C174.523 50.4502 168.419 57.6869 160.903 57.6869H157.876C150.411 57.6869 144.307 50.4502 144.307 41.5986V15.4626H150.461V41.5986C150.461 46.4431 153.79 50.3306 157.876 50.3306H160.903C164.989 50.3306 168.318 46.4431 168.318 41.5986Z" fill="white"/>
<path d="M225.483 65.5279H227.348L227.325 71.309C227.325 71.9909 226.894 72.6264 226.128 73.0448C225.459 73.4168 224.789 73.6183 224.047 73.6493V77.8185H222.181V73.6493C221.464 73.6028 220.746 73.3858 220.148 73.0448C219.383 72.6264 218.952 71.9909 218.952 71.309V65.5279H220.818V71.309C220.818 71.9289 221.631 72.4559 222.564 72.4559H223.712C224.645 72.4559 225.459 71.9289 225.459 71.309L225.483 65.5279Z" fill="white"/>
<path d="M215.108 66.0547C215.874 66.4887 216.328 67.1242 216.328 67.7906V77.8184H214.462V67.7906C214.462 67.1707 213.625 66.6437 212.692 66.6437H211.568C210.635 66.6437 209.798 67.1707 209.798 67.7906V77.8184H207.932V67.7906C207.932 67.1397 208.362 66.4887 209.152 66.0547C209.846 65.6673 210.707 65.4348 211.568 65.4348H212.692C213.553 65.4348 214.438 65.6828 215.108 66.0547Z" fill="white"/>
<path d="M203.849 66.0702C204.638 66.5041 205.069 67.1241 205.069 67.806V77.8183H203.203V73.6801H198.538V77.8183H196.672V67.806C196.672 67.1241 197.103 66.5041 197.892 66.0702C198.586 65.6827 199.447 65.4502 200.308 65.4502H201.433C202.294 65.4502 203.203 65.6827 203.849 66.0702ZM198.538 72.4712H203.203V67.806C203.203 67.1861 202.366 66.6591 201.433 66.6591H200.308C199.376 66.6591 198.538 67.1861 198.538 67.806V72.4712Z" fill="white"/>
<path d="M192.876 66.3183C193.474 66.7523 193.809 67.3257 193.809 67.8682V71.5569C193.809 72.0994 193.474 72.6574 192.876 73.1068C192.182 73.6183 191.225 73.8973 190.22 73.8973H187.278V77.8185H185.412V65.5279H190.22C191.225 65.5279 192.182 65.8068 192.876 66.3183ZM191.943 71.5569V67.8682C191.943 67.2792 191.153 66.7368 190.196 66.7368H187.278V72.6884H190.196C191.153 72.6884 191.943 72.1459 191.943 71.5569Z" fill="white"/>
<path d="M181.317 66.0547C182.083 66.5042 182.537 67.1397 182.537 67.7906V77.8184H180.671V67.7906C180.671 67.1707 179.834 66.6437 178.901 66.6437H178.805C177.873 66.6437 177.035 67.1707 177.035 67.7906V77.8184H175.169V67.7906C175.169 67.1707 174.356 66.6437 173.423 66.6437H173.328C172.395 66.6437 171.557 67.1707 171.557 67.7906V77.8184H169.692V67.7906C169.692 67.1242 170.17 66.5042 170.912 66.0547C171.557 65.6673 172.466 65.4348 173.328 65.4348H173.423C174.284 65.4348 175.146 65.6673 175.839 66.0547C175.935 66.1012 176.031 66.1632 176.102 66.2252L176.389 66.0547C177.083 65.6673 177.944 65.4348 178.805 65.4348H178.901C179.762 65.4348 180.647 65.6518 181.317 66.0547Z" fill="white"/>
<path d="M166.827 67.7751V75.4626C166.827 76.1445 166.373 76.78 165.607 77.1984C164.962 77.5859 164.053 77.8184 163.191 77.8184H162.067C161.206 77.8184 160.321 77.6014 159.651 77.2139C158.886 76.78 158.431 76.1445 158.431 75.4626V67.7751C158.431 67.1087 158.886 66.4732 159.651 66.0392C160.345 65.6518 161.23 65.4348 162.067 65.4348H163.191C164.053 65.4348 164.938 65.6673 165.607 66.0392C166.373 66.4732 166.827 67.1087 166.827 67.7751ZM164.962 75.4626V67.7751C164.962 67.1552 164.148 66.6437 163.191 66.6437H162.067C161.11 66.6437 160.297 67.1552 160.297 67.7751V75.4626C160.297 76.0825 161.134 76.6095 162.067 76.6095H163.191C164.124 76.6095 164.962 76.0825 164.962 75.4626Z" fill="white"/>
<path d="M155.802 68.5811H153.936V67.7751C153.936 67.1552 153.123 66.6437 152.166 66.6437H151.042C150.085 66.6437 149.271 67.1397 149.271 67.7751V75.5556C149.271 76.1755 150.085 76.7025 151.042 76.7025H152.166C153.099 76.7025 153.936 76.1755 153.936 75.5556V73.4632H155.802V75.5556C155.802 76.222 155.347 76.8575 154.582 77.2914C153.888 77.6789 153.027 77.9114 152.166 77.9114H151.042C150.18 77.9114 149.319 77.6634 148.625 77.2914C147.86 76.873 147.406 76.2375 147.406 75.5556V67.7751C147.406 67.1087 147.86 66.4732 148.625 66.0392C149.295 65.6518 150.18 65.4348 151.042 65.4348H152.166C153.003 65.4348 153.912 65.6363 154.582 66.0392C155.347 66.4887 155.802 67.1242 155.802 67.7751V68.5811Z" fill="white"/>
<g clip-path="url(#clip0_1145_82)">
<path d="M13.3655 45.7163C13.3655 51.535 13.5992 57.3657 13.3051 63.1722C12.9465 70.248 19.671 77.0545 27.0741 77.0545C27.0741 77.0545 33.3189 77.1633 36.5396 76.9235C39.1306 76.984 41.7011 76.6267 43.9294 75.0834L45.5467 73.8112L46.8065 75.434C48.8373 77.7429 50.8964 80.0276 52.8789 82.3728L54.1484 83.7525L52.2262 85.0041C48.7366 87.1639 45.0939 88.6709 40.9475 89.3721C36.8495 90.0611 32.8079 89.8637 28.7381 89.9322C16.8067 90.1336 6.25747 83.0216 2.01843 72.0895C0.733013 68.7772 0.241412 65.2151 0.17694 61.7377C-0.0285652 50.8378 -0.0930375 39.93 0.168881 29.0342C0.358268 21.1444 2.8888 13.992 8.9089 8.45947C14.4132 3.40243 20.9894 0.98875 28.4279 0.843687C31.3815 0.787274 34.3432 0.690566 37.2847 0.871894C42.2209 1.17814 46.9475 2.47161 51.1624 5.07065C56.0663 8.09278 59.4712 12.4567 61.8245 17.7072C63.5612 21.5796 64.1213 25.6615 64.1213 29.7998C64.1173 41.2315 63.9601 52.6632 63.8432 64.099C63.8352 64.8605 63.8432 68.0297 63.8432 68.0297L61.0991 65.1346C61.0991 65.1346 56.5466 60.3666 53.8662 57.1078C52.7928 55.8028 51.1871 53.8581 51.1871 53.8581L51.1785 50.6767C51.2913 42.8514 51.2631 35.026 51.1704 27.2007C51.1059 21.7488 46.2584 15.3661 40.3512 14.3627C34.7461 13.4117 29.1773 13.2425 23.6166 14.4634C17.9954 15.7005 13.4381 21.3217 13.3978 27.0476C13.3494 33.2692 13.3857 39.4867 13.3857 45.7083H13.3615L13.3655 45.7163Z" fill="white"/>
<path d="M62.9834 90.1685L61.2003 88.1552C54.1608 80.1969 47.1172 72.2427 40.0857 64.2803C35.488 59.0742 30.9105 53.8439 26.3168 48.6338L24.7476 46.8779L26.4579 45.39L32.8648 39.9139L34.4774 38.4878L35.8829 40.1073L53.8908 60.5248L62.3004 70.1916L63.4551 71.555L64.7584 70.3085C71.0887 63.8774 77.6971 57.7122 83.8059 51.0595L85.8056 49.0637L87.4727 50.6687L93.102 56.3704L94.9714 58.2999L93.0456 60.2911C90.926 62.4227 88.7864 64.5302 86.6588 66.6537C82.6414 70.655 78.628 74.6564 74.6146 78.6577C71.3063 81.9538 67.9941 85.2459 64.6818 88.5421L62.9874 90.1725L62.9834 90.1685Z" fill="white"/>
</g>
<defs>
<clipPath id="clip0_1145_82">
<rect width="95.1829" height="89.6834" fill="white" transform="translate(0 0.767181)"/>
</clipPath>
</defs>
</svg>
