<svg width="97" height="85" viewBox="0 0 97 85" fill="none" xmlns="http://www.w3.org/2000/svg">
<path d="M20.2712 0.783424C19.4539 3.70249 19.0452 6.41722 19.0452 8.92762C19.0452 12.9559 19.3371 16.0501 19.9209 18.2103C19.9209 21.8299 18.8701 23.6397 16.7683 23.6397H15.6299C15.1045 23.6397 14.8417 23.4062 14.8417 22.9391V4.72417C11.9811 5.48312 9.6458 5.8626 7.83598 5.8626C7.83598 6.73832 7.95274 7.38052 8.18627 7.78918C10.9886 20.2828 13.3238 32.1342 15.192 43.3434C17.1186 54.5526 18.6657 65.2364 19.8333 75.3948V75.8326C19.5998 76.5916 18.8117 76.9711 17.4689 76.9711H16.3305C10.142 73.585 6.37645 71.8919 5.03368 71.8919H1.53079C1.00536 71.8919 0.742647 71.6292 0.742647 71.1038C1.61837 54.8154 2.05623 44.3067 2.05623 39.5778C2.05623 36.7755 1.53079 31.9883 0.479931 25.216C0.479931 24.1652 0.859409 23.6397 1.61837 23.6397H2.7568C4.15796 23.6397 5.09206 24.3111 5.55911 25.6539H5.12125C5.64668 29.3319 5.9094 33.331 5.9094 37.6512L6.25968 39.9281C6.02616 39.9281 5.9094 40.0741 5.9094 40.366C5.9094 40.7163 6.02616 41.0957 6.25968 41.5044C6.02616 41.9131 5.9094 42.4385 5.9094 43.0807V43.431C5.9094 44.7738 5.9094 47.5761 5.9094 51.8379C5.9094 56.0414 5.88021 61.6752 5.82182 68.7393C6.87269 68.7393 9.58742 69.6734 13.966 71.5416H14.4039C13.6449 62.9012 12.8276 55.5451 11.9519 49.4735C11.1345 43.3434 10.288 38.3518 9.41228 34.4987C7.1354 24.6906 5.47154 17.247 4.42067 12.1678C3.36981 7.03023 2.81518 4.14035 2.7568 3.49816V2.79758C3.34062 2.79758 3.63252 2.65163 3.63252 2.35972C9.6458 1.83429 14.4039 1.04614 17.9068 -0.00472444C18.6073 -0.00472444 19.3955 0.257992 20.2712 0.783424ZM29.0209 2.97273C30.6556 3.84845 31.4729 5.04526 31.4729 6.56318C27.97 25.7706 25.8683 38.6437 25.1677 45.1824C25.5764 45.1241 27.0067 39.7822 29.4587 29.1568C29.809 27.4637 30.2469 26.6172 30.7723 26.6172H31.5605C33.2535 26.6172 34.1001 27.6388 34.1001 29.6822C33.0492 42.818 32.5238 50.3784 32.5238 52.3633H32.3486L32.5238 52.8012V53.4142C32.5238 54.4651 32.553 55.8078 32.6113 57.4425C32.6697 59.0188 32.7573 60.887 32.8741 63.0471H33.1368V62.872C33.8957 54.1148 34.4503 46.0582 34.8006 38.7021C35.2093 31.3461 35.4136 24.6614 35.4136 18.6481C36.3477 17.8892 37.1943 17.5097 37.9532 17.5097C38.9457 18.2103 39.6171 19.2319 39.9674 20.5747C39.3252 23.6689 38.8581 32.0758 38.5662 45.7954H38.7414C38.3327 46.5544 38.1284 47.109 38.1284 47.4593C38.1284 50.1449 37.8657 53.9104 37.3402 58.7561C36.8732 63.6018 36.1434 69.5858 35.1509 76.7084L34.2752 77.3214H33.3995C30.8307 77.3214 29.2544 68.2723 28.6706 50.174V47.5469C27.6781 50.5243 26.6564 53.8229 25.6056 57.4425C24.6131 61.0622 23.5622 65.0905 22.453 69.5275L21.5773 70.0529H20.7891C20.3804 70.0529 19.6799 69.2064 18.6874 67.5133C19.9718 55.3116 21.3729 43.8689 22.8908 33.1851C24.4671 22.4429 26.1894 12.3721 28.0576 2.97273H29.0209ZM45.548 31.6088L47.2119 30.6455L48.7882 30.8206C49.372 30.9374 49.6639 31.3169 49.6639 31.9591V32.2218L49.3136 35.0241C48.6131 45.1824 48.2628 54.2899 48.2628 62.3466C48.2628 66.4332 48.3503 70.228 48.5255 73.7309L48.3504 75.3948L45.7232 75.6575C45.0226 75.5991 44.4388 71.3957 43.9717 63.0471L44.6723 61.9963C44.6139 61.5292 44.5848 61.033 44.5848 60.5075C44.5848 59.9237 44.5848 59.3107 44.5848 58.6685C44.5848 55.9246 44.6723 52.3342 44.8475 47.8972C45.0226 43.4018 45.2561 37.9723 45.548 31.6088ZM54.2177 25.3036L53.7798 26.7047L52.9041 27.4929C52.729 27.668 52.5246 27.7556 52.2911 27.7556C52.1159 27.7556 51.9408 27.6388 51.7657 27.4053L47.7373 23.2019C46.5697 24.5446 45.5189 25.7998 44.5848 26.9675C43.709 28.1351 42.9209 29.2151 42.2203 30.2076L41.3446 30.9958L39.6807 29.8573C39.564 29.7406 39.5056 29.6238 39.5056 29.507C39.5056 28.8649 40.1186 27.6972 41.3446 26.0042L42.2203 25.7415C42.6874 25.1576 43.1836 24.5154 43.709 23.8149C44.2928 23.0559 44.9642 22.2094 45.7232 21.2753C44.7891 20.3996 43.9134 19.5822 43.096 18.8233C42.3371 18.0059 41.5781 17.247 40.8192 16.5464L40.1186 15.6707L41.3446 14.0068C41.403 13.9484 41.4905 13.9192 41.6073 13.9192C42.1327 13.9192 43.0085 14.5322 44.2345 15.7582L44.4972 16.634C44.9059 17.0426 45.3437 17.4513 45.8108 17.86C46.2778 18.2686 46.8032 18.7065 47.3871 19.1736C48.0293 18.3562 48.7298 17.4805 49.4888 16.5464C50.3061 15.6123 51.1818 14.6198 52.1159 13.5689L53.5171 13.8317L54.3928 14.7074C54.568 14.8825 54.6555 15.0869 54.6555 15.3204C54.6555 15.4955 54.5388 15.6707 54.3052 15.8458L52.9041 17.3345C52.2619 17.9767 51.6489 18.6189 51.0651 19.2611C50.5397 19.9033 50.0142 20.5163 49.4888 21.1001C50.8899 22.3261 52.4662 23.7273 54.2177 25.3036ZM64.7811 7.70161C66.8244 7.93514 68.5175 8.19785 69.8602 8.48976C71.203 8.72329 72.2539 9.04439 73.0128 9.45306C71.67 14.4739 70.9987 19.2319 70.9987 23.7273V29.507L68.1964 30.5579C67.7293 30.5579 67.2623 29.799 66.7952 28.281C66.912 27.1134 66.9995 26.0625 67.0579 25.1284C67.1163 24.1943 67.1455 23.4062 67.1455 22.764V19.6114L67.3206 18.9984H67.0579C67.5834 16.3129 67.8461 14.6782 67.8461 14.0944C67.8461 12.9851 66.9412 12.4305 65.1313 12.4305C64.7811 12.4305 64.6059 12.664 64.6059 13.1311V22.2386L64.3432 24.3403C64.5183 24.3403 64.6059 24.6614 64.6059 25.3036L64.2556 26.3545C64.2556 30.7914 64.168 37.0382 63.9929 45.0949C63.8178 53.0931 63.5842 62.9596 63.2923 74.6942V75.2196C62.5917 76.7376 62.0079 77.4965 61.5409 77.4965H61.1906C59.7894 77.4965 58.9429 76.9127 58.651 75.7451V74.1688C59.2348 65.2948 59.6435 55.6911 59.877 45.3576C60.1689 34.9657 60.3149 23.6981 60.3149 11.5548L58.8262 11.4672L58.2131 11.8175H58.5634C58.5634 13.1603 58.5342 14.9701 58.4759 17.247C58.4759 19.5238 58.4467 22.2678 58.3883 25.4787C58.2715 31.7839 57.1039 34.9365 54.8854 34.9365C54.1265 34.5278 53.747 33.3018 53.747 31.2585C53.747 30.3828 53.8054 29.3319 53.9221 28.1059C54.0973 26.8799 54.3308 25.5079 54.6227 23.99L54.5351 18.0351V15.9334C54.5351 12.2554 54.3308 9.59901 53.9221 7.96433C54.6227 6.7967 55.4692 6.21289 56.4617 6.21289L60.6652 6.73832L64.7811 7.70161ZM80.1554 8.75248C82.1988 8.75248 83.2204 14.1819 83.2204 25.0409C83.2204 25.5663 83.1037 25.829 82.8701 25.829L83.2204 29.1568V38.9648C83.2204 39.8405 82.8701 40.2784 82.1696 40.2784H81.469C80.6517 40.2784 80.097 39.0816 79.8051 36.688C79.5716 34.2359 78.9878 30.5871 78.0537 25.7415L75.952 62.1714L81.2938 53.0639H83.7459C84.3881 53.1807 84.7092 53.6185 84.7092 54.3775C84.7092 55.8954 83.5415 58.0263 81.2063 60.7703C78.8126 64.9737 76.8861 70.6951 75.4265 77.9344H74.0254C72.9161 77.1754 72.3615 76.037 72.3615 74.5191C72.3615 69.0312 73.2372 50.6411 74.9887 19.3487C74.8719 18.1811 74.7843 17.101 74.7259 16.1085C74.6676 15.116 74.6384 14.2111 74.6384 13.3938C74.9303 13.3938 75.5141 13.2186 76.3898 12.8684C77.3239 12.8684 78.404 14.8241 79.63 18.7357V16.2837C79.63 13.0727 79.2797 11.4672 78.5791 11.4672L80.1554 8.75248ZM86.0022 4.19874C87.2282 4.3155 87.8704 4.66578 87.9288 5.2496L88.1039 6.12532V7.17618C88.1039 8.57733 87.9872 11.3213 87.7537 15.4079C87.5785 19.4363 87.345 24.8657 87.0531 31.6963C86.9947 32.5137 86.9655 33.2726 86.9655 33.9732C86.9655 34.6154 86.9655 35.1992 86.9655 35.7247C86.9655 37.0674 87.0239 38.0307 87.1406 38.6145L87.2282 38.9648C87.6953 39.607 88.1915 39.9281 88.7169 39.9281C88.8921 39.9281 89.038 39.8989 89.1548 39.8405C90.0305 26.0042 91.169 15.1452 92.5701 7.26375L93.621 6.82589C93.7961 6.82589 94.088 6.97185 94.4967 7.26375C94.9054 7.49728 95.46 7.93514 96.1606 8.57733C94.4675 15.1744 93.3291 24.0192 92.7453 35.1117C92.6285 36.0458 92.5409 36.8631 92.4825 37.5637C92.4242 38.2642 92.395 38.8481 92.395 39.3151C92.395 39.8989 92.4242 40.2784 92.4825 40.4535H92.6577C93.008 40.4535 93.2707 40.7455 93.4458 41.3293L93.5334 41.7671C93.5334 41.8839 93.5334 42.0298 93.5334 42.205C93.5918 42.3218 93.621 42.4385 93.621 42.5553C93.621 43.6645 93.1247 45.0657 92.1323 46.7587C92.0739 47.9264 92.0447 49.0356 92.0447 50.0865C92.0447 51.1373 92.0447 52.159 92.0447 53.1515C92.0447 58.3474 92.1906 62.9012 92.4825 66.8127C92.7744 70.6659 93.2123 73.9353 93.7961 76.6208L93.8837 77.0587C94.0005 77.7008 94.2632 78.2847 94.6718 78.8101C95.0805 79.3355 95.2848 80.1529 95.2848 81.2621C95.2848 82.0794 95.2265 82.6925 95.1097 83.1011C94.9929 83.5682 94.847 83.8893 94.6718 84.0644C94.5551 84.2979 94.3799 84.4147 94.1464 84.4147C93.9713 84.4731 93.7961 84.5023 93.621 84.5023C92.6285 84.5023 91.9863 83.7433 91.6944 82.2254L91.4317 80.9118C90.6143 76.8835 89.9721 72.5925 89.5051 68.0387C89.038 63.4266 88.8045 58.4642 88.8045 53.1515C88.8045 51.8087 88.8045 50.4368 88.8045 49.0356C88.8045 47.5761 88.8629 46.0873 88.9797 44.5694C88.3375 44.2191 87.8704 44.044 87.5785 44.044C87.4617 44.044 87.3742 44.2775 87.3158 44.7446C87.2574 45.2116 87.199 45.7663 87.1406 46.4084C87.1406 47.0506 87.1406 47.6928 87.1406 48.335C87.1406 48.9772 87.1406 49.4735 87.1406 49.8238C87.1406 56.596 87.6661 64.711 88.7169 74.1688L87.9288 75.0445L87.5785 75.2196C87.4034 75.2196 87.1115 75.1029 86.7028 74.8694C86.2941 74.6358 85.7687 74.198 85.1265 73.5558C84.2508 64.6234 83.8129 52.7428 83.8129 37.914C83.8129 27.9308 83.9881 20.1368 84.3383 14.5322C84.747 8.86924 85.0389 5.5415 85.2141 4.54902L86.0022 4.19874Z" fill="white"/>
</svg>
